SubSource-HROTdd_VROTn_SLENx_SANGx.ufo
<glyph name="percent" format="2">
  <advance width="1023"/>
  <unicode hex="0025"/>
  <outline>
    <contour>
      <point x="824" y="-13" type="curve" smooth="yes"/>
      <point x="766" y="-1"/>
      <point x="723" y="50"/>
      <point x="723" y="120" type="curve" smooth="yes"/>
      <point x="723" y="204"/>
      <point x="793" y="272"/>
      <point x="904" y="272" type="curve" smooth="yes"/>
      <point x="1015" y="272"/>
      <point x="1087" y="204"/>
      <point x="1087" y="120" type="curve" smooth="yes"/>
      <point x="1087" y="53"/>
      <point x="1037" y="-2"/>
      <point x="950" y="-14" type="curve" smooth="yes"/>
      <point x="883" y="-22"/>
      <point x="871" y="67"/>
      <point x="938" y="76" type="curve" smooth="yes"/>
      <point x="972" y="80"/>
      <point x="997" y="94"/>
      <point x="997" y="120" type="curve" smooth="yes"/>
      <point x="997" y="159"/>
      <point x="956" y="182"/>
      <point x="904" y="182" type="curve" smooth="yes"/>
      <point x="852" y="182"/>
      <point x="813" y="159"/>
      <point x="813" y="120" type="curve" smooth="yes"/>
      <point x="813" y="97"/>
      <point x="823" y="79"/>
      <point x="842" y="75" type="curve" smooth="yes"/>
      <point x="908" y="62"/>
      <point x="890" y="-27"/>
    </contour>
    <contour>
      <point x="860" y="441" type="curve" smooth="yes"/>
      <point x="840" y="380"/>
      <point x="791" y="330"/>
      <point x="730" y="267" type="curve" smooth="yes"/>
      <point x="663" y="200"/>
      <point x="593" y="130"/>
      <point x="549" y="86" type="curve" smooth="yes"/>
      <point x="511" y="48"/>
      <point x="462" y="14"/>
      <point x="398" y="-5" type="curve" smooth="yes"/>
      <point x="333" y="-25"/>
      <point x="307" y="61"/>
      <point x="372" y="81" type="curve" smooth="yes"/>
      <point x="420" y="96"/>
      <point x="457" y="120"/>
      <point x="485" y="148" type="curve" smooth="yes"/>
      <point x="529" y="194"/>
      <point x="599" y="264"/>
      <point x="666" y="331" type="curve" smooth="yes"/>
      <point x="710" y="375"/>
      <point x="760" y="425"/>
      <point x="774" y="469" type="curve" smooth="yes"/>
      <point x="795" y="533"/>
      <point x="880" y="506"/>
    </contour>
    <contour>
      <point x="413" y="489" type="curve" smooth="yes"/>
      <point x="496" y="460"/>
      <point x="541" y="401"/>
      <point x="541" y="337" type="curve" smooth="yes"/>
      <point x="541" y="253"/>
      <point x="469" y="185"/>
      <point x="358" y="185" type="curve" smooth="yes"/>
      <point x="247" y="185"/>
      <point x="177" y="253"/>
      <point x="177" y="337" type="curve" smooth="yes"/>
      <point x="177" y="401"/>
      <point x="212" y="456"/>
      <point x="265" y="486" type="curve" smooth="yes"/>
      <point x="324" y="519"/>
      <point x="368" y="441"/>
      <point x="309" y="408" type="curve" smooth="yes"/>
      <point x="284" y="394"/>
      <point x="267" y="367"/>
      <point x="267" y="337" type="curve" smooth="yes"/>
      <point x="267" y="298"/>
      <point x="306" y="275"/>
      <point x="358" y="275" type="curve" smooth="yes"/>
      <point x="410" y="275"/>
      <point x="451" y="298"/>
      <point x="451" y="337" type="curve" smooth="yes"/>
      <point x="451" y="366"/>
      <point x="421" y="391"/>
      <point x="383" y="405" type="curve" smooth="yes"/>
      <point x="319" y="428"/>
      <point x="350" y="512"/>
    </contour>
  </outline>
</glyph>
<glyph name="ampersand" format="2">
  <advance width="634"/>
  <unicode hex="0026"/>
  <outline>
    <contour>
      <point x="546" y="414" type="curve" smooth="yes"/>
      <point x="519" y="395"/>
      <point x="504" y="402"/>
      <point x="422" y="402" type="curve" smooth="yes"/>
      <point x="354" y="402"/>
      <point x="299" y="379"/>
      <point x="289" y="336" type="curve" smooth="yes"/>
      <point x="288" y="332"/>
      <point x="389" y="361"/>
      <point x="400" y="364" type="curve" smooth="yes"/>
      <point x="429" y="371"/>
      <point x="465" y="375"/>
      <point x="520" y="363" type="curve" smooth="yes"/>
      <point x="692" y="326"/>
      <point x="749" y="212"/>
      <point x="686" y="173" type="curve" smooth="yes"/>
      <point x="660" y="157"/>
      <point x="626" y="157"/>
      <point x="558" y="166" type="curve" smooth="yes"/>
      <point x="372" y="194"/>
      <point x="273" y="177"/>
      <point x="273" y="118" type="curve" smooth="yes"/>
      <point x="273" y="81"/>
      <point x="347" y="55"/>
      <point x="404" y="60" type="curve" smooth="yes"/>
      <point x="475" y="66"/>
      <point x="506" y="107"/>
      <point x="506" y="159" type="curve" smooth="yes"/>
      <point x="506" y="222"/>
      <point x="506" y="242"/>
      <point x="506" y="281" type="curve" smooth="yes"/>
      <point x="506" y="302"/>
      <point x="504" y="317"/>
      <point x="487" y="348" type="curve" smooth="yes"/>
      <point x="454" y="407"/>
      <point x="533" y="451"/>
      <point x="565" y="392" type="curve" smooth="yes"/>
      <point x="592" y="343"/>
      <point x="596" y="314"/>
      <point x="596" y="281" type="curve" smooth="yes"/>
      <point x="596" y="223"/>
      <point x="596" y="202"/>
      <point x="596" y="159" type="curve" smooth="yes"/>
      <point x="596" y="67"/>
      <point x="537" y="-20"/>
      <point x="412" y="-30" type="curve" smooth="yes"/>
      <point x="281" y="-41"/>
      <point x="183" y="33"/>
      <point x="183" y="118" type="curve" smooth="yes"/>
      <point x="183" y="217"/>
      <point x="261" y="302"/>
      <point x="570" y="256" type="curve" smooth="yes"/>
      <point x="576" y="255"/>
      <point x="636" y="248"/>
      <point x="638" y="249" type="curve" smooth="yes"/>
      <point x="641" y="251"/>
      <point x="507" y="274"/>
      <point x="500" y="275" type="curve" smooth="yes"/>
      <point x="463" y="283"/>
      <point x="441" y="281"/>
      <point x="422" y="276" type="curve" smooth="yes"/>
      <point x="212" y="225"/>
      <point x="181" y="276"/>
      <point x="201" y="358" type="curve" smooth="yes"/>
      <point x="220" y="436"/>
      <point x="299" y="492"/>
      <point x="422" y="492" type="curve" smooth="yes"/>
      <point x="425" y="492"/>
      <point x="493" y="487"/>
      <point x="494" y="488" type="curve" smooth="yes"/>
      <point x="549" y="527"/>
      <point x="601" y="454"/>
    </contour>
  </outline>
</glyph>
<glyph name="parenleft" format="2">
  <advance width="452"/>
  <unicode hex="0028"/>
  <outline>
    <contour>
      <point x="382" y="-67" type="curve" smooth="yes"/>
      <point x="219" y="-35"/>
      <point x="69" y="86"/>
      <point x="69" y="289" type="curve" smooth="yes"/>
      <point x="69" y="492"/>
      <point x="219" y="612"/>
      <point x="382" y="645" type="curve" smooth="yes"/>
      <point x="448" y="658"/>
      <point x="466" y="570"/>
      <point x="400" y="557" type="curve" smooth="yes"/>
      <point x="275" y="532"/>
      <point x="159" y="444"/>
      <point x="159" y="289" type="curve" smooth="yes"/>
      <point x="159" y="134"/>
      <point x="275" y="45"/>
      <point x="400" y="21" type="curve" smooth="yes"/>
      <point x="466" y="8"/>
      <point x="449" y="-80"/>
    </contour>
  </outline>
</glyph>
<glyph name="asterisk" format="2">
  <advance width="614"/>
  <unicode hex="002A"/>
  <outline>
    <contour>
      <point x="85" y="446" type="curve" smooth="yes"/>
      <point x="134" y="446"/>
      <point x="154" y="446"/>
      <point x="187" y="446" type="curve" smooth="yes"/>
      <point x="263" y="446"/>
      <point x="350" y="405"/>
      <point x="385" y="361" type="curve" smooth="yes"/>
      <point x="405" y="337"/>
      <point x="415" y="325"/>
      <point x="436" y="298" type="curve" smooth="yes"/>
      <point x="477" y="245"/>
      <point x="405" y="190"/>
      <point x="364" y="244" type="curve" smooth="yes"/>
      <point x="345" y="269"/>
      <point x="335" y="279"/>
      <point x="315" y="305" type="curve" smooth="yes"/>
      <point x="294" y="330"/>
      <point x="231" y="356"/>
      <point x="187" y="356" type="curve" smooth="yes"/>
      <point x="138" y="356"/>
      <point x="118" y="356"/>
      <point x="85" y="356" type="curve" smooth="yes"/>
      <point x="18" y="356"/>
      <point x="18" y="446"/>
    </contour>
    <contour>
      <point x="556" y="420" type="curve" smooth="yes"/>
      <point x="536" y="394"/>
      <point x="527" y="382"/>
      <point x="507" y="357" type="curve" smooth="yes"/>
      <point x="470" y="312"/>
      <point x="383" y="271"/>
      <point x="307" y="271" type="curve" smooth="yes"/>
      <point x="258" y="271"/>
      <point x="238" y="271"/>
      <point x="205" y="271" type="curve" smooth="yes"/>
      <point x="138" y="271"/>
      <point x="138" y="361"/>
      <point x="205" y="361" type="curve" smooth="yes"/>
      <point x="254" y="361"/>
      <point x="274" y="361"/>
      <point x="307" y="361" type="curve" smooth="yes"/>
      <point x="351" y="361"/>
      <point x="416" y="388"/>
      <point x="435" y="411" type="curve" smooth="yes"/>
      <point x="455" y="437"/>
      <point x="464" y="449"/>
      <point x="484" y="474" type="curve" smooth="yes"/>
      <point x="525" y="528"/>
      <point x="597" y="473"/>
    </contour>
    <contour>
      <point x="504" y="356" type="curve" smooth="yes"/>
      <point x="455" y="356"/>
      <point x="435" y="356"/>
      <point x="402" y="356" type="curve" smooth="yes"/>
      <point x="326" y="356"/>
      <point x="239" y="397"/>
      <point x="204" y="441" type="curve" smooth="yes"/>
      <point x="184" y="466"/>
      <point x="174" y="478"/>
      <point x="154" y="503" type="curve" smooth="yes"/>
      <point x="112" y="556"/>
      <point x="182" y="612"/>
      <point x="224" y="559" type="curve" smooth="yes"/>
      <point x="244" y="534"/>
      <point x="254" y="522"/>
      <point x="274" y="497" type="curve" smooth="yes"/>
      <point x="295" y="472"/>
      <point x="358" y="446"/>
      <point x="402" y="446" type="curve" smooth="yes"/>
      <point x="451" y="446"/>
      <point x="471" y="446"/>
      <point x="504" y="446" type="curve" smooth="yes"/>
      <point x="572" y="446"/>
      <point x="572" y="356"/>
    </contour>
    <contour>
      <point x="273" y="213" type="curve" smooth="yes"/>
      <point x="294" y="241"/>
      <point x="308" y="254"/>
      <point x="327" y="278" type="curve" smooth="yes"/>
      <point x="363" y="324"/>
      <point x="446" y="361"/>
      <point x="522" y="361" type="curve" smooth="yes"/>
      <point x="571" y="361"/>
      <point x="591" y="361"/>
      <point x="624" y="361" type="curve" smooth="yes"/>
      <point x="692" y="361"/>
      <point x="692" y="271"/>
      <point x="624" y="271" type="curve" smooth="yes"/>
      <point x="575" y="271"/>
      <point x="555" y="271"/>
      <point x="522" y="271" type="curve" smooth="yes"/>
      <point x="478" y="271"/>
      <point x="418" y="248"/>
      <point x="399" y="224" type="curve" smooth="yes"/>
      <point x="378" y="196"/>
      <point x="364" y="183"/>
      <point x="345" y="159" type="curve" smooth="yes"/>
      <point x="304" y="105"/>
      <point x="232" y="160"/>
    </contour>
    <contour>
      <point x="346" y="473" type="curve" smooth="yes"/>
      <point x="365" y="448"/>
      <point x="375" y="438"/>
      <point x="395" y="412" type="curve" smooth="yes"/>
      <point x="425" y="375"/>
      <point x="478" y="310"/>
      <point x="506" y="275" type="curve" smooth="yes"/>
      <point x="526" y="251"/>
      <point x="535" y="240"/>
      <point x="555" y="214" type="curve" smooth="yes"/>
      <point x="597" y="161"/>
      <point x="527" y="105"/>
      <point x="485" y="158" type="curve" smooth="yes"/>
      <point x="465" y="182"/>
      <point x="456" y="195"/>
      <point x="436" y="219" type="curve" smooth="yes"/>
      <point x="406" y="256"/>
      <point x="353" y="321"/>
      <point x="325" y="356" type="curve" smooth="yes"/>
      <point x="305" y="380"/>
      <point x="295" y="392"/>
      <point x="274" y="419" type="curve" smooth="yes"/>
      <point x="233" y="472"/>
      <point x="305" y="527"/>
    </contour>
  </outline>
</glyph>
<glyph name="hyphen" format="2">
  <advance width="340"/>
  <unicode hex="002D"/>
  <outline>
    <contour>
      <point x="389" y="185" type="curve" smooth="yes"/>
      <point x="347" y="158"/>
      <point x="255" y="153"/>
      <point x="163" y="180" type="curve" smooth="yes"/>
      <point x="98" y="198"/>
      <point x="123" y="285"/>
      <point x="187" y="266" type="curve" smooth="yes"/>
      <point x="239" y="252"/>
      <point x="318" y="246"/>
      <point x="341" y="261" type="curve" smooth="yes"/>
      <point x="398" y="297"/>
      <point x="446" y="221"/>
    </contour>
  </outline>
</glyph>
<glyph name="two" format="2">
  <advance width="505"/>
  <unicode hex="0032"/>
  <outline>
    <contour>
      <point x="190" y="487" type="curve" smooth="yes"/>
      <point x="262" y="488"/>
      <point x="314" y="494"/>
      <point x="394" y="488" type="curve" smooth="yes"/>
      <point x="489" y="481"/>
      <point x="577" y="430"/>
      <point x="577" y="343" type="curve" smooth="yes"/>
      <point x="577" y="278"/>
      <point x="538" y="238"/>
      <point x="439" y="160" type="curve" smooth="yes"/>
      <point x="380" y="114"/>
      <point x="355" y="72"/>
      <point x="299" y="38" type="curve" smooth="yes"/>
      <point x="52" y="-110"/>
      <point x="195" y="107"/>
      <point x="211" y="107" type="curve" smooth="yes"/>
      <point x="288" y="107"/>
      <point x="390" y="65"/>
      <point x="456" y="65" type="curve" smooth="yes"/>
      <point x="459" y="65"/>
      <point x="490" y="65"/>
      <point x="490" y="66" type="curve" smooth="yes"/>
      <point x="538" y="114"/>
      <point x="602" y="50"/>
      <point x="554" y="2" type="curve" smooth="yes"/>
      <point x="539" y="-13"/>
      <point x="514" y="-25"/>
      <point x="456" y="-25" type="curve" smooth="yes"/>
      <point x="375" y="-25"/>
      <point x="274" y="17"/>
      <point x="211" y="17" type="curve" smooth="yes"/>
      <point x="-2" y="17"/>
      <point x="233" y="103"/>
      <point x="251" y="114" type="curve" smooth="yes"/>
      <point x="299" y="144"/>
      <point x="314" y="176"/>
      <point x="383" y="230" type="curve" smooth="yes"/>
      <point x="433" y="270"/>
      <point x="487" y="310"/>
      <point x="487" y="343" type="curve" smooth="yes"/>
      <point x="487" y="377"/>
      <point x="424" y="395"/>
      <point x="386" y="398" type="curve" smooth="yes"/>
      <point x="314" y="404"/>
      <point x="258" y="398"/>
      <point x="192" y="397" type="curve" smooth="yes"/>
      <point x="124" y="396"/>
      <point x="123" y="486"/>
    </contour>
  </outline>
</glyph>
<glyph name="colon" format="2">
  <advance width="260"/>
  <unicode hex="003A"/>
  <outline>
    <contour>
      <point x="255" y="-26" type="curve" smooth="yes"/>
      <point x="167" y="-15"/>
      <point x="168" y="87"/>
      <point x="256" y="95" type="curve" smooth="yes"/>
      <point x="323" y="101"/>
      <point x="331" y="11"/>
      <point x="264" y="5" type="curve" smooth="yes"/>
      <point x="261" y="5"/>
      <point x="263" y="64"/>
      <point x="265" y="64" type="curve" smooth="yes"/>
      <point x="332" y="56"/>
      <point x="322" y="-34"/>
    </contour>
    <contour>
      <point x="256" y="229" type="curve" smooth="yes"/>
      <point x="168" y="237"/>
      <point x="167" y="339"/>
      <point x="255" y="350" type="curve" smooth="yes"/>
      <point x="322" y="358"/>
      <point x="332" y="268"/>
      <point x="265" y="260" type="curve" smooth="yes"/>
      <point x="263" y="260"/>
      <point x="261" y="319"/>
      <point x="264" y="319" type="curve" smooth="yes"/>
      <point x="331" y="313"/>
      <point x="323" y="223"/>
    </contour>
  </outline>
</glyph>
<glyph name="less" format="2">
  <advance width="447"/>
  <unicode hex="003C"/>
  <outline>
    <contour>
      <point x="375" y="369" type="curve" smooth="yes"/>
      <point x="98" y="251" type="line"/>
      <point x="98" y="333" type="line"/>
      <point x="375" y="214" type="line" smooth="yes"/>
      <point x="437" y="188"/>
      <point x="401" y="105"/>
      <point x="339" y="132" type="curve" smooth="yes"/>
      <point x="62" y="251" type="line" smooth="yes"/>
      <point x="26" y="266"/>
      <point x="26" y="318"/>
      <point x="62" y="333" type="curve" smooth="yes"/>
      <point x="339" y="451" type="line" smooth="yes"/>
      <point x="401" y="478"/>
      <point x="437" y="395"/>
    </contour>
  </outline>
</glyph>
<glyph name="question" format="2">
  <advance width="511"/>
  <unicode hex="003F"/>
  <outline>
    <contour>
      <point x="181" y="489" type="curve" smooth="yes"/>
      <point x="261" y="483"/>
      <point x="312" y="491"/>
      <point x="361" y="491" type="curve" smooth="yes"/>
      <point x="508" y="491"/>
      <point x="592" y="429"/>
      <point x="592" y="351" type="curve" smooth="yes"/>
      <point x="592" y="298"/>
      <point x="551" y="238"/>
      <point x="451" y="214" type="curve" smooth="yes"/>
      <point x="365" y="194"/>
      <point x="341" y="179"/>
      <point x="307" y="170" type="curve" smooth="yes"/>
      <point x="241" y="154"/>
      <point x="220" y="241"/>
      <point x="285" y="258" type="curve" smooth="yes"/>
      <point x="315" y="265"/>
      <point x="335" y="280"/>
      <point x="431" y="302" type="curve" smooth="yes"/>
      <point x="468" y="311"/>
      <point x="502" y="331"/>
      <point x="502" y="351" type="curve" smooth="yes"/>
      <point x="502" y="382"/>
      <point x="420" y="401"/>
      <point x="361" y="401" type="curve" smooth="yes"/>
      <point x="316" y="401"/>
      <point x="261" y="393"/>
      <point x="175" y="399" type="curve" smooth="yes"/>
      <point x="107" y="404"/>
      <point x="114" y="494"/>
    </contour>
    <contour>
      <point x="302" y="16" type="curve" smooth="yes"/>
      <point x="302" y="28"/>
      <point x="302" y="46"/>
      <point x="302" y="54" type="curve" smooth="yes"/>
      <point x="302" y="122"/>
      <point x="392" y="122"/>
      <point x="392" y="54" type="curve" smooth="yes"/>
      <point x="392" y="42"/>
      <point x="392" y="24"/>
      <point x="392" y="16" type="curve" smooth="yes"/>
      <point x="392" y="-52"/>
      <point x="302" y="-51"/>
    </contour>
  </outline>
</glyph>
<glyph name="B" format="2">
  <advance width="540"/>
  <unicode hex="0042"/>
  <outline>
    <contour>
      <point x="324" y="95" type="curve" smooth="yes"/>
      <point x="401" y="79"/>
      <point x="452" y="67"/>
      <point x="495" y="78" type="curve" smooth="yes"/>
      <point x="526" y="86"/>
      <point x="544" y="103"/>
      <point x="544" y="127" type="curve" smooth="yes"/>
      <point x="544" y="157"/>
      <point x="518" y="169"/>
      <point x="473" y="182" type="curve" smooth="yes"/>
      <point x="447" y="188"/>
      <point x="435" y="191"/>
      <point x="400" y="195" type="curve" smooth="yes"/>
      <point x="221" y="222"/>
      <point x="140" y="367"/>
      <point x="285" y="367" type="curve" smooth="yes"/>
      <point x="316" y="367"/>
      <point x="334" y="366"/>
      <point x="369" y="368" type="curve" smooth="yes"/>
      <point x="419" y="370"/>
      <point x="471" y="376"/>
      <point x="500" y="395" type="curve" smooth="yes"/>
      <point x="504" y="398"/>
      <point x="402" y="392"/>
      <point x="394" y="392" type="curve" smooth="yes"/>
      <point x="371" y="394"/>
      <point x="350" y="393"/>
      <point x="325" y="394" type="curve" smooth="yes"/>
      <point x="298" y="395"/>
      <point x="290" y="398"/>
      <point x="290" y="380" type="curve" smooth="yes"/>
      <point x="290" y="279"/>
      <point x="290" y="195"/>
      <point x="290" y="127" type="curve" smooth="yes"/>
      <point x="290" y="79"/>
      <point x="284" y="40"/>
      <point x="261" y="9" type="curve" smooth="yes"/>
      <point x="219" y="-44"/>
      <point x="148" y="11"/>
      <point x="189" y="65" type="curve" smooth="yes"/>
      <point x="199" y="77"/>
      <point x="200" y="107"/>
      <point x="200" y="127" type="curve" smooth="yes"/>
      <point x="200" y="228"/>
      <point x="200" y="312"/>
      <point x="200" y="380" type="curve" smooth="yes"/>
      <point x="200" y="447"/>
      <point x="228" y="487"/>
      <point x="329" y="484" type="curve" smooth="yes"/>
      <point x="350" y="483"/>
      <point x="375" y="484"/>
      <point x="400" y="482" type="curve" smooth="yes"/>
      <point x="583" y="470"/>
      <point x="629" y="373"/>
      <point x="550" y="321" type="curve" smooth="yes"/>
      <point x="507" y="292"/>
      <point x="448" y="282"/>
      <point x="373" y="278" type="curve" smooth="yes"/>
      <point x="336" y="276"/>
      <point x="318" y="277"/>
      <point x="285" y="277" type="curve" smooth="yes"/>
      <point x="279" y="277"/>
      <point x="405" y="286"/>
      <point x="412" y="285" type="curve" smooth="yes"/>
      <point x="451" y="279"/>
      <point x="467" y="276"/>
      <point x="497" y="268" type="curve" smooth="yes"/>
      <point x="596" y="241"/>
      <point x="634" y="193"/>
      <point x="634" y="127" type="curve" smooth="yes"/>
      <point x="634" y="67"/>
      <point x="595" y="11"/>
      <point x="519" y="-8" type="curve" smooth="yes"/>
      <point x="459" y="-24"/>
      <point x="411" y="-15"/>
      <point x="306" y="7" type="curve" smooth="yes"/>
      <point x="240" y="21"/>
      <point x="258" y="109"/>
    </contour>
  </outline>
</glyph>
<glyph name="H" format="2">
  <advance width="688"/>
  <unicode hex="0048"/>
  <outline>
    <contour>
      <point x="254" y="485" type="curve" smooth="yes"/>
      <point x="290" y="427"/>
      <point x="291" y="391"/>
      <point x="291" y="359" type="curve" smooth="yes"/>
      <point x="291" y="274"/>
      <point x="291" y="156"/>
      <point x="291" y="80" type="curve" smooth="yes"/>
      <point x="291" y="-80"/>
      <point x="81" y="24"/>
      <point x="81" y="163" type="curve" smooth="yes"/>
      <point x="81" y="203"/>
      <point x="81" y="233"/>
      <point x="81" y="260" type="curve" smooth="yes"/>
      <point x="81" y="329"/>
      <point x="142" y="369"/>
      <point x="216" y="369" type="curve" smooth="yes"/>
      <point x="321" y="369"/>
      <point x="404" y="369"/>
      <point x="474" y="369" type="curve" smooth="yes"/>
      <point x="499" y="369"/>
      <point x="519" y="371"/>
      <point x="519" y="387" type="curve" smooth="yes"/>
      <point x="519" y="417"/>
      <point x="519" y="442"/>
      <point x="519" y="462" type="curve" smooth="yes"/>
      <point x="519" y="611"/>
      <point x="729" y="526"/>
      <point x="729" y="377" type="curve" smooth="yes"/>
      <point x="729" y="265"/>
      <point x="729" y="126"/>
      <point x="729" y="99" type="curve" smooth="yes"/>
      <point x="729" y="49"/>
      <point x="718" y="5"/>
      <point x="663" y="-6" type="curve" smooth="yes"/>
      <point x="597" y="-19"/>
      <point x="579" y="69"/>
      <point x="645" y="82" type="curve" smooth="yes"/>
      <point x="647" y="83"/>
      <point x="639" y="97"/>
      <point x="639" y="99" type="curve" smooth="yes"/>
      <point x="639" y="139"/>
      <point x="639" y="302"/>
      <point x="639" y="377" type="curve" smooth="yes"/>
      <point x="639" y="383"/>
      <point x="609" y="468"/>
      <point x="609" y="462" type="curve" smooth="yes"/>
      <point x="609" y="432"/>
      <point x="609" y="407"/>
      <point x="609" y="387" type="curve" smooth="yes"/>
      <point x="609" y="327"/>
      <point x="569" y="279"/>
      <point x="474" y="279" type="curve" smooth="yes"/>
      <point x="369" y="279"/>
      <point x="286" y="279"/>
      <point x="216" y="279" type="curve" smooth="yes"/>
      <point x="200" y="279"/>
      <point x="171" y="275"/>
      <point x="171" y="260" type="curve" smooth="yes"/>
      <point x="171" y="220"/>
      <point x="171" y="190"/>
      <point x="171" y="163" type="curve" smooth="yes"/>
      <point x="171" y="157"/>
      <point x="201" y="73"/>
      <point x="201" y="80" type="curve" smooth="yes"/>
      <point x="201" y="193"/>
      <point x="201" y="302"/>
      <point x="201" y="359" type="curve" smooth="yes"/>
      <point x="201" y="381"/>
      <point x="202" y="399"/>
      <point x="178" y="439" type="curve" smooth="yes"/>
      <point x="142" y="496"/>
      <point x="219" y="543"/>
    </contour>
  </outline>
</glyph>
<glyph name="J" format="2">
  <advance width="448"/>
  <unicode hex="004A"/>
  <outline>
    <contour>
      <point x="186" y="96" type="curve" smooth="yes"/>
      <point x="237" y="74"/>
      <point x="278" y="65"/>
      <point x="309" y="64" type="curve" smooth="yes"/>
      <point x="371" y="63"/>
      <point x="407" y="85"/>
      <point x="407" y="135" type="curve" smooth="yes"/>
      <point x="407" y="219"/>
      <point x="407" y="264"/>
      <point x="407" y="320" type="curve" smooth="yes"/>
      <point x="407" y="356"/>
      <point x="402" y="400"/>
      <point x="381" y="446" type="curve" smooth="yes"/>
      <point x="353" y="508"/>
      <point x="435" y="545"/>
      <point x="463" y="484" type="curve" smooth="yes"/>
      <point x="490" y="424"/>
      <point x="497" y="366"/>
      <point x="497" y="320" type="curve" smooth="yes"/>
      <point x="497" y="237"/>
      <point x="497" y="191"/>
      <point x="497" y="135" type="curve" smooth="yes"/>
      <point x="497" y="39"/>
      <point x="427" y="-29"/>
      <point x="307" y="-26" type="curve" smooth="yes"/>
      <point x="267" y="-25"/>
      <point x="217" y="-14"/>
      <point x="152" y="12" type="curve" smooth="yes"/>
      <point x="89" y="38"/>
      <point x="124" y="121"/>
    </contour>
  </outline>
</glyph>
<glyph name="K" format="2">
  <advance width="591"/>
  <unicode hex="004B"/>
  <outline>
    <contour>
      <point x="266" y="476" type="curve" smooth="yes"/>
      <point x="289" y="423"/>
      <point x="290" y="386"/>
      <point x="290" y="350" type="curve" smooth="yes"/>
      <point x="290" y="246"/>
      <point x="290" y="164"/>
      <point x="290" y="94" type="curve" smooth="yes"/>
      <point x="290" y="47"/>
      <point x="273" y="10"/>
      <point x="237" y="-4" type="curve" smooth="yes"/>
      <point x="175" y="-31"/>
      <point x="140" y="52"/>
      <point x="203" y="78" type="curve" smooth="yes"/>
      <point x="204" y="79"/>
      <point x="200" y="92"/>
      <point x="200" y="94" type="curve" smooth="yes"/>
      <point x="200" y="199"/>
      <point x="200" y="281"/>
      <point x="200" y="350" type="curve" smooth="yes"/>
      <point x="200" y="376"/>
      <point x="201" y="401"/>
      <point x="184" y="440" type="curve" smooth="yes"/>
      <point x="157" y="502"/>
      <point x="239" y="538"/>
    </contour>
    <contour>
      <point x="647" y="437" type="curve" smooth="yes"/>
      <point x="622" y="388"/>
      <point x="580" y="352"/>
      <point x="525" y="325" type="curve" smooth="yes"/>
      <point x="483" y="304"/>
      <point x="390" y="265"/>
      <point x="325" y="260" type="curve" smooth="yes"/>
      <point x="317" y="260"/>
      <point x="350" y="264"/>
      <point x="357" y="260" type="curve" smooth="yes"/>
      <point x="438" y="205"/>
      <point x="583" y="108"/>
      <point x="659" y="56" type="curve" smooth="yes"/>
      <point x="714" y="18"/>
      <point x="663" y="-56"/>
      <point x="607" y="-18" type="curve" smooth="yes"/>
      <point x="533" y="34"/>
      <point x="388" y="131"/>
      <point x="307" y="184" type="curve" smooth="yes"/>
      <point x="172" y="274"/>
      <point x="166" y="340"/>
      <point x="319" y="350" type="curve" smooth="yes"/>
      <point x="368" y="353"/>
      <point x="453" y="390"/>
      <point x="485" y="405" type="curve" smooth="yes"/>
      <point x="521" y="424"/>
      <point x="550" y="446"/>
      <point x="567" y="479" type="curve" smooth="yes"/>
      <point x="598" y="539"/>
      <point x="678" y="498"/>
    </contour>
  </outline>
</glyph>
<glyph name="N" format="2">
  <advance width="688"/>
  <unicode hex="004E"/>
  <outline>
    <contour>
      <point x="194" y="72" type="curve" smooth="yes"/>
      <point x="199" y="76"/>
      <point x="200" y="99"/>
      <point x="200" y="107" type="curve" smooth="yes"/>
      <point x="200" y="172"/>
      <point x="200" y="246"/>
      <point x="200" y="301" type="curve" smooth="yes"/>
      <point x="200" y="335"/>
      <point x="200" y="360"/>
      <point x="200" y="379" type="curve" smooth="yes"/>
      <point x="200" y="404"/>
      <point x="56" y="666"/>
      <point x="219" y="508" type="curve" smooth="yes"/>
      <point x="242" y="486"/>
      <point x="263" y="465"/>
      <point x="282" y="446" type="curve" smooth="yes"/>
      <point x="339" y="388"/>
      <point x="410" y="315"/>
      <point x="471" y="253" type="curve" smooth="yes"/>
      <point x="492" y="232"/>
      <point x="513" y="210"/>
      <point x="530" y="194" type="curve" smooth="yes"/>
      <point x="535" y="188"/>
      <point x="638" y="85"/>
      <point x="638" y="91" type="curve" smooth="yes"/>
      <point x="638" y="109"/>
      <point x="638" y="131"/>
      <point x="638" y="151" type="curve" smooth="yes"/>
      <point x="638" y="230"/>
      <point x="638" y="312"/>
      <point x="638" y="356" type="curve" smooth="yes"/>
      <point x="638" y="380"/>
      <point x="635" y="405"/>
      <point x="618" y="441" type="curve" smooth="yes"/>
      <point x="590" y="502"/>
      <point x="671" y="540"/>
      <point x="700" y="479" type="curve" smooth="yes"/>
      <point x="723" y="429"/>
      <point x="728" y="390"/>
      <point x="728" y="356" type="curve" smooth="yes"/>
      <point x="728" y="290"/>
      <point x="728" y="204"/>
      <point x="728" y="151" type="curve" smooth="yes"/>
      <point x="728" y="122"/>
      <point x="728" y="103"/>
      <point x="728" y="91" type="curve" smooth="yes"/>
      <point x="728" y="-45"/>
      <point x="572" y="24"/>
      <point x="468" y="128" type="curve" smooth="yes"/>
      <point x="449" y="146"/>
      <point x="430" y="166"/>
      <point x="407" y="189" type="curve" smooth="yes"/>
      <point x="350" y="247"/>
      <point x="279" y="320"/>
      <point x="218" y="382" type="curve" smooth="yes"/>
      <point x="190" y="410"/>
      <point x="171" y="429"/>
      <point x="157" y="444" type="curve" smooth="yes"/>
      <point x="142" y="457"/>
      <point x="290" y="657"/>
      <point x="290" y="379" type="curve" smooth="yes"/>
      <point x="290" y="351"/>
      <point x="290" y="324"/>
      <point x="290" y="301" type="curve" smooth="yes"/>
      <point x="290" y="219"/>
      <point x="290" y="150"/>
      <point x="290" y="107" type="curve" smooth="yes"/>
      <point x="290" y="61"/>
      <point x="280" y="24"/>
      <point x="248" y="0" type="curve" smooth="yes"/>
      <point x="194" y="-41"/>
      <point x="140" y="31"/>
    </contour>
  </outline>
</glyph>
<glyph name="O" format="2">
  <advance width="732"/>
  <unicode hex="004F"/>
  <outline>
    <contour>
      <point x="-2154.9623611755387" y="-3.1439366808313522" type="curve" smooth="yes"/>
      <point x="-2184.346812114" y="-13.533550207928519"/>
      <point x="-2215.3840292179802" y="-12.343552631385226"/>
      <point x="-2255.1206755818275" y="5.178615448987216" type="curve" smooth="yes"/>
      <point x="-2336.5680352852655" y="41.093431041594656"/>
      <point x="-2402.9791594672784" y="130.8263294717185"/>
      <point x="-2402.996378836703" y="229.48604936411564" type="curve" smooth="yes"/>
      <point x="-2403.0222632231525" y="377.7926600009081"/>
      <point x="-2272.0966338168023" y="489.45436482630055"/>
      <point x="-2080.0339014342285" y="489.45436482630055" type="curve" smooth="yes"/>
      <point x="-1889.149468023327" y="489.45436482630055"/>
      <point x="-1761.0221275834704" y="376.9751847580322"/>
      <point x="-1760.9963886149224" y="229.50175732706455" type="curve" smooth="yes"/>
      <point x="-1760.9795333284392" y="132.9280790405363"/>
      <point x="-1802.8862087418902" y="43.20136793394515"/>
      <point x="-1905.9640836879648" y="6.755561461952453" type="curve" smooth="yes"/>
      <point x="-1947.8988787221635" y="-8.071552747169823"/>
      <point x="-1994.5593500782777" y="-13.508141072432167"/>
      <point x="-2055.9140566347724" y="-5.3226090875032455" type="curve" smooth="yes"/>
      <point x="-2122.8212390756403" y="3.6036968575332082"/>
      <point x="-2110.9194978155915" y="92.81327344535734"/>
      <point x="-2044.0123153747236" y="83.88696750032088" type="curve" smooth="yes"/>
      <point x="-1999.4426247153501" y="77.940779360463"/>
      <point x="-1966.4282982557731" y="80.83697671413739"/>
      <point x="-1935.9657478266968" y="91.60778682408855" type="curve" smooth="yes"/>
      <point x="-1871.6526769223174" y="114.34731009255708"/>
      <point x="-1850.985870775549" y="169.23112247134176"/>
      <point x="-1850.9963872441442" y="229.4860493641157" type="curve" smooth="yes"/>
      <point x="-1851.0142771215583" y="331.9874970650826"/>
      <point x="-1947.3596216738624" y="399.45436482630055"/>
      <point x="-2080.0339014342285" y="399.45436482630055" type="curve" smooth="yes"/>
      <point x="-2213.4604116017535" y="399.45436482630055"/>
      <point x="-2313.0143621621746" y="332.5307689763678"/>
      <point x="-2312.9963802074817" y="229.5017573270646" type="curve" smooth="yes"/>
      <point x="-2312.9857063307095" y="168.34494800565528"/>
      <point x="-2269.2954364067205" y="109.79061693109404"/>
      <point x="-2218.808158999609" y="87.52787858756136" type="curve" smooth="yes"/>
      <point x="-2205.6905734544816" y="81.7435822323586"/>
      <point x="-2194.664197913127" y="78.27854807940419"/>
      <point x="-2184.964007178548" y="81.70829509364899" type="curve" smooth="yes"/>
      <point x="-2121.3248333476877" y="104.20952959590595"/>
      <point x="-2091.3231873446784" y="19.357297821425608"/>
    </contour>
  </outline>
</glyph>
<glyph name="R" format="2">
  <advance width="595"/>
  <unicode hex="0052"/>
  <outline>
    <contour>
      <point x="205" y="82" type="curve" smooth="yes"/>
      <point x="207" y="82"/>
      <point x="200" y="100"/>
      <point x="200" y="102" type="curve" smooth="yes"/>
      <point x="200" y="164"/>
      <point x="200" y="284"/>
      <point x="200" y="353" type="curve" smooth="yes"/>
      <point x="200" y="448"/>
      <point x="168" y="511"/>
      <point x="277" y="511" type="curve" smooth="yes"/>
      <point x="307" y="511"/>
      <point x="334" y="511"/>
      <point x="360" y="511" type="curve" smooth="yes"/>
      <point x="499" y="511"/>
      <point x="616" y="415"/>
      <point x="620" y="327" type="curve" smooth="yes"/>
      <point x="624" y="235"/>
      <point x="539" y="168"/>
      <point x="412" y="168" type="curve" smooth="yes"/>
      <point x="375" y="168" type="line" smooth="yes"/>
      <point x="208" y="168"/>
      <point x="90" y="343"/>
      <point x="255" y="343" type="curve" smooth="yes"/>
      <point x="333" y="343"/>
      <point x="390" y="308"/>
      <point x="462" y="247" type="curve" smooth="yes"/>
      <point x="582" y="144"/>
      <point x="650" y="79"/>
      <point x="662" y="47" type="curve" smooth="yes"/>
      <point x="686" y="-16"/>
      <point x="602" y="-48"/>
      <point x="578" y="15" type="curve" smooth="yes"/>
      <point x="573" y="29"/>
      <point x="454" y="135"/>
      <point x="404" y="179" type="curve" smooth="yes"/>
      <point x="353" y="222"/>
      <point x="310" y="253"/>
      <point x="255" y="253" type="curve" smooth="yes"/>
      <point x="248" y="253"/>
      <point x="368" y="258"/>
      <point x="375" y="258" type="curve" smooth="yes"/>
      <point x="412" y="258" type="line" smooth="yes"/>
      <point x="472" y="258"/>
      <point x="532" y="279"/>
      <point x="530" y="323" type="curve" smooth="yes"/>
      <point x="528" y="370"/>
      <point x="433" y="421"/>
      <point x="360" y="421" type="curve" smooth="yes"/>
      <point x="321" y="421"/>
      <point x="297" y="421"/>
      <point x="277" y="421" type="curve" smooth="yes"/>
      <point x="272" y="421"/>
      <point x="290" y="357"/>
      <point x="290" y="353" type="curve" smooth="yes"/>
      <point x="290" y="251"/>
      <point x="290" y="144"/>
      <point x="290" y="102" type="curve" smooth="yes"/>
      <point x="290" y="64"/>
      <point x="283" y="8"/>
      <point x="225" y="-6" type="curve" smooth="yes"/>
      <point x="159" y="-21"/>
      <point x="139" y="66"/>
    </contour>
  </outline>
</glyph>
<glyph name="T" format="2">
  <advance width="498"/>
  <unicode hex="0054"/>
  <outline>
    <contour>
      <point x="543" y="392" type="curve" smooth="yes"/>
      <point x="432" y="392"/>
      <point x="338" y="392"/>
      <point x="264" y="392" type="curve" smooth="yes"/>
      <point x="75" y="392"/>
      <point x="-40" y="569"/>
      <point x="132" y="569" type="curve" smooth="yes"/>
      <point x="225" y="569"/>
      <point x="348" y="477"/>
      <point x="386" y="378" type="curve" smooth="yes"/>
      <point x="420" y="290"/>
      <point x="415" y="188"/>
      <point x="415" y="130" type="curve" smooth="yes"/>
      <point x="415" y="41"/>
      <point x="399" y="12"/>
      <point x="376" y="-5" type="curve" smooth="yes"/>
      <point x="321" y="-45"/>
      <point x="268" y="27"/>
      <point x="322" y="67" type="curve" smooth="yes"/>
      <point x="324" y="68"/>
      <point x="325" y="126"/>
      <point x="325" y="130" type="curve" smooth="yes"/>
      <point x="325" y="178"/>
      <point x="330" y="274"/>
      <point x="302" y="346" type="curve" smooth="yes"/>
      <point x="278" y="407"/>
      <point x="189" y="479"/>
      <point x="132" y="479" type="curve" smooth="yes"/>
      <point x="124" y="479"/>
      <point x="256" y="482"/>
      <point x="264" y="482" type="curve" smooth="yes"/>
      <point x="375" y="482"/>
      <point x="469" y="482"/>
      <point x="543" y="482" type="curve" smooth="yes"/>
      <point x="611" y="482"/>
      <point x="611" y="392"/>
    </contour>
  </outline>
</glyph>
<glyph name="W" format="2">
  <advance width="888"/>
  <unicode hex="0057"/>
  <outline>
    <contour>
      <point x="216" y="482" type="curve" smooth="yes"/>
      <point x="252" y="434"/>
      <point x="279" y="375"/>
      <point x="293" y="341" type="curve" smooth="yes"/>
      <point x="322" y="272"/>
      <point x="346" y="214"/>
      <point x="379" y="140" type="curve" smooth="yes"/>
      <point x="385" y="126"/>
      <point x="392" y="111"/>
      <point x="399" y="96" type="curve" smooth="yes"/>
      <point x="471" y="-75"/>
      <point x="202" y="3"/>
      <point x="270" y="178" type="curve" smooth="yes"/>
      <point x="277" y="195"/>
      <point x="283" y="212"/>
      <point x="289" y="228" type="curve" smooth="yes"/>
      <point x="312" y="291"/>
      <point x="333" y="353"/>
      <point x="353" y="409" type="curve" smooth="yes"/>
      <point x="360" y="430"/>
      <point x="366" y="446"/>
      <point x="372" y="465" type="curve" smooth="yes"/>
      <point x="421" y="609"/>
      <point x="582" y="521"/>
      <point x="633" y="376" type="curve" smooth="yes"/>
      <point x="639" y="360"/>
      <point x="645" y="344"/>
      <point x="650" y="327" type="curve" smooth="yes"/>
      <point x="670" y="269"/>
      <point x="694" y="205"/>
      <point x="716" y="143" type="curve" smooth="yes"/>
      <point x="724" y="122"/>
      <point x="730" y="106"/>
      <point x="734" y="92" type="curve" smooth="yes"/>
      <point x="795" y="-79"/>
      <point x="536" y="4"/>
      <point x="611" y="181" type="curve" smooth="yes"/>
      <point x="623" y="208"/>
      <point x="638" y="231"/>
      <point x="660" y="245" type="curve" smooth="yes"/>
      <point x="746" y="306"/>
      <point x="810" y="278"/>
      <point x="841" y="354" type="curve" smooth="yes"/>
      <point x="851" y="377"/>
      <point x="869" y="416"/>
      <point x="864" y="448" type="curve" smooth="yes"/>
      <point x="853" y="515"/>
      <point x="942" y="529"/>
      <point x="952" y="462" type="curve" smooth="yes"/>
      <point x="961" y="407"/>
      <point x="941" y="358"/>
      <point x="925" y="320" type="curve" smooth="yes"/>
      <point x="877" y="205"/>
      <point x="768" y="211"/>
      <point x="710" y="171" type="curve" smooth="yes"/>
      <point x="703" y="166"/>
      <point x="697" y="153"/>
      <point x="693" y="145" type="curve" smooth="yes"/>
      <point x="691" y="139"/>
      <point x="652" y="55"/>
      <point x="650" y="62" type="curve" smooth="yes"/>
      <point x="642" y="83"/>
      <point x="636" y="99"/>
      <point x="632" y="113" type="curve" smooth="yes"/>
      <point x="610" y="175"/>
      <point x="586" y="239"/>
      <point x="566" y="297" type="curve" smooth="yes"/>
      <point x="559" y="314"/>
      <point x="553" y="332"/>
      <point x="549" y="346" type="curve" smooth="yes"/>
      <point x="535" y="386"/>
      <point x="471" y="476"/>
      <point x="458" y="437" type="curve" smooth="yes"/>
      <point x="452" y="418"/>
      <point x="444" y="398"/>
      <point x="437" y="379" type="curve" smooth="yes"/>
      <point x="417" y="323"/>
      <point x="396" y="261"/>
      <point x="373" y="198" type="curve" smooth="yes"/>
      <point x="367" y="180"/>
      <point x="361" y="163"/>
      <point x="354" y="146" type="curve" smooth="yes"/>
      <point x="351" y="139"/>
      <point x="319" y="53"/>
      <point x="317" y="58" type="curve" smooth="yes"/>
      <point x="310" y="73"/>
      <point x="303" y="90"/>
      <point x="297" y="104" type="curve" smooth="yes"/>
      <point x="264" y="178"/>
      <point x="240" y="236"/>
      <point x="211" y="307" type="curve" smooth="yes"/>
      <point x="199" y="335"/>
      <point x="174" y="388"/>
      <point x="144" y="428" type="curve" smooth="yes"/>
      <point x="104" y="482"/>
      <point x="176" y="536"/>
    </contour>
  </outline>
</glyph>
<glyph name="X" format="2">
  <advance width="617"/>
  <unicode hex="0058"/>
  <outline>
    <contour>
      <point x="222" y="499" type="curve" smooth="yes"/>
      <point x="266" y="460"/>
      <point x="301" y="429"/>
      <point x="325" y="405" type="curve" smooth="yes"/>
      <point x="370" y="359"/>
      <point x="388" y="331"/>
      <point x="431" y="289" type="curve" smooth="yes"/>
      <point x="476" y="244"/>
      <point x="549" y="183"/>
      <point x="595" y="137" type="curve" smooth="yes"/>
      <point x="623" y="109"/>
      <point x="652" y="79"/>
      <point x="681" y="51" type="curve" smooth="yes"/>
      <point x="730" y="4"/>
      <point x="667" y="-60"/>
      <point x="619" y="-13" type="curve" smooth="yes"/>
      <point x="590" y="15"/>
      <point x="561" y="45"/>
      <point x="531" y="73" type="curve" smooth="yes"/>
      <point x="487" y="117"/>
      <point x="414" y="178"/>
      <point x="367" y="225" type="curve" smooth="yes"/>
      <point x="322" y="271"/>
      <point x="304" y="299"/>
      <point x="261" y="341" type="curve" smooth="yes"/>
      <point x="239" y="363"/>
      <point x="204" y="395"/>
      <point x="162" y="431" type="curve" smooth="yes"/>
      <point x="112" y="476"/>
      <point x="171" y="543"/>
    </contour>
    <contour>
      <point x="673" y="411" type="curve" smooth="yes"/>
      <point x="649" y="388"/>
      <point x="625" y="363"/>
      <point x="601" y="341" type="curve" smooth="yes"/>
      <point x="567" y="307"/>
      <point x="580" y="219"/>
      <point x="520" y="161" type="curve" smooth="yes"/>
      <point x="462" y="105"/>
      <point x="363" y="107"/>
      <point x="327" y="73" type="curve" smooth="yes"/>
      <point x="298" y="44"/>
      <point x="268" y="14"/>
      <point x="239" y="-13" type="curve" smooth="yes"/>
      <point x="191" y="-60"/>
      <point x="128" y="4"/>
      <point x="177" y="51" type="curve" smooth="yes"/>
      <point x="206" y="80"/>
      <point x="236" y="110"/>
      <point x="265" y="137" type="curve" smooth="yes"/>
      <point x="321" y="193"/>
      <point x="422" y="191"/>
      <point x="458" y="225" type="curve" smooth="yes"/>
      <point x="493" y="260"/>
      <point x="480" y="347"/>
      <point x="539" y="405" type="curve" smooth="yes"/>
      <point x="563" y="428"/>
      <point x="587" y="453"/>
      <point x="611" y="475" type="curve" smooth="yes"/>
      <point x="660" y="522"/>
      <point x="722" y="457"/>
    </contour>
  </outline>
</glyph>
<glyph name="Y" format="2">
  <advance width="582"/>
  <unicode hex="0059"/>
  <outline>
    <contour>
      <point x="647" y="453" type="curve" smooth="yes"/>
      <point x="642" y="405"/>
      <point x="621" y="372"/>
      <point x="597" y="338" type="curve" smooth="yes"/>
      <point x="560" y="281"/>
      <point x="526" y="246"/>
      <point x="488" y="196" type="curve" smooth="yes"/>
      <point x="472" y="175"/>
      <point x="456" y="151"/>
      <point x="456" y="124" type="curve" smooth="yes"/>
      <point x="456" y="105"/>
      <point x="456" y="92"/>
      <point x="456" y="69" type="curve" smooth="yes"/>
      <point x="456" y="-63"/>
      <point x="246" y="19"/>
      <point x="246" y="157" type="curve" smooth="yes"/>
      <point x="246" y="185"/>
      <point x="246" y="196"/>
      <point x="246" y="209" type="curve" smooth="yes"/>
      <point x="246" y="223"/>
      <point x="255" y="276"/>
      <point x="250" y="285" type="curve" smooth="yes"/>
      <point x="230" y="319"/>
      <point x="195" y="363"/>
      <point x="144" y="431" type="curve" smooth="yes"/>
      <point x="103" y="485"/>
      <point x="175" y="539"/>
      <point x="216" y="485" type="curve" smooth="yes"/>
      <point x="275" y="407"/>
      <point x="306" y="369"/>
      <point x="328" y="329" type="curve" smooth="yes"/>
      <point x="372" y="252"/>
      <point x="336" y="334"/>
      <point x="336" y="209" type="curve" smooth="yes"/>
      <point x="336" y="190"/>
      <point x="336" y="176"/>
      <point x="336" y="157" type="curve" smooth="yes"/>
      <point x="336" y="152"/>
      <point x="366" y="64"/>
      <point x="366" y="69" type="curve" smooth="yes"/>
      <point x="366" y="103"/>
      <point x="366" y="111"/>
      <point x="366" y="124" type="curve" smooth="yes"/>
      <point x="366" y="174"/>
      <point x="388" y="213"/>
      <point x="416" y="250" type="curve" smooth="yes"/>
      <point x="456" y="304"/>
      <point x="488" y="335"/>
      <point x="523" y="388" type="curve" smooth="yes"/>
      <point x="537" y="409"/>
      <point x="554" y="433"/>
      <point x="557" y="463" type="curve" smooth="yes"/>
      <point x="564" y="530"/>
      <point x="654" y="521"/>
    </contour>
  </outline>
</glyph>
<glyph name="Z" format="2">
  <advance width="595"/>
  <unicode hex="005A"/>
  <outline>
    <contour>
      <point x="212" y="496" type="curve" smooth="yes"/>
      <point x="272" y="487"/>
      <point x="379" y="482"/>
      <point x="443" y="482" type="curve" smooth="yes"/>
      <point x="476" y="482"/>
      <point x="489" y="483"/>
      <point x="522" y="485" type="curve" smooth="yes"/>
      <point x="529" y="485"/>
      <point x="487" y="437"/>
      <point x="483" y="432" type="curve" smooth="yes"/>
      <point x="455" y="406"/>
      <point x="444" y="395"/>
      <point x="421" y="372" type="curve" smooth="yes"/>
      <point x="388" y="340"/>
      <point x="273" y="228"/>
      <point x="241" y="196" type="curve" smooth="yes"/>
      <point x="217" y="171"/>
      <point x="198" y="155"/>
      <point x="180" y="136" type="curve" smooth="yes"/>
      <point x="157" y="112"/>
      <point x="256" y="72"/>
      <point x="302" y="69" type="curve" smooth="yes"/>
      <point x="340" y="66"/>
      <point x="361" y="65"/>
      <point x="402" y="65" type="curve" smooth="yes"/>
      <point x="463" y="65"/>
      <point x="530" y="65"/>
      <point x="579" y="78" type="curve" smooth="yes"/>
      <point x="644" y="95"/>
      <point x="667" y="8"/>
      <point x="601" y="-10" type="curve" smooth="yes"/>
      <point x="544" y="-25"/>
      <point x="475" y="-25"/>
      <point x="402" y="-25" type="curve" smooth="yes"/>
      <point x="359" y="-25"/>
      <point x="336" y="-24"/>
      <point x="296" y="-21" type="curve" smooth="yes"/>
      <point x="134" y="-11"/>
      <point x="34" y="114"/>
      <point x="114" y="198" type="curve" smooth="yes"/>
      <point x="134" y="219"/>
      <point x="155" y="237"/>
      <point x="177" y="258" type="curve" smooth="yes"/>
      <point x="209" y="292"/>
      <point x="324" y="404"/>
      <point x="359" y="438" type="curve" smooth="yes"/>
      <point x="382" y="459"/>
      <point x="393" y="470"/>
      <point x="419" y="496" type="curve" smooth="yes"/>
      <point x="535" y="611"/>
      <point x="719" y="411"/>
      <point x="528" y="395" type="curve" smooth="yes"/>
      <point x="493" y="393"/>
      <point x="478" y="392"/>
      <point x="443" y="392" type="curve" smooth="yes"/>
      <point x="373" y="392"/>
      <point x="262" y="397"/>
      <point x="198" y="408" type="curve" smooth="yes"/>
      <point x="131" y="418"/>
      <point x="146" y="507"/>
    </contour>
  </outline>
</glyph>
<glyph name="bracketleft" format="2">
  <advance width="430"/>
  <unicode hex="005B"/>
  <outline>
    <contour>
      <point x="453" y="459" type="curve" smooth="yes"/>
      <point x="248" y="513"/>
      <point x="323" y="468"/>
      <point x="323" y="386" type="curve" smooth="yes"/>
      <point x="323" y="200"/>
      <point x="323" y="146"/>
      <point x="323" y="21" type="curve" smooth="yes"/>
      <point x="323" y="-33"/>
      <point x="344" y="-10"/>
      <point x="477" y="-46" type="curve" smooth="yes"/>
      <point x="542" y="-63"/>
      <point x="518" y="-150"/>
      <point x="453" y="-132" type="curve" smooth="yes"/>
      <point x="107" y="-39"/>
      <point x="233" y="-120"/>
      <point x="233" y="21" type="curve" smooth="yes"/>
      <point x="233" y="207"/>
      <point x="233" y="261"/>
      <point x="233" y="386" type="curve" smooth="yes"/>
      <point x="233" y="526"/>
      <point x="128" y="638"/>
      <point x="477" y="545" type="curve" smooth="yes"/>
      <point x="542" y="528"/>
      <point x="519" y="441"/>
    </contour>
  </outline>
</glyph>
<glyph name="asciicircum" format="2">
  <advance width="560"/>
  <unicode hex="005E"/>
  <outline>
    <contour>
      <point x="195" y="230" type="curve" smooth="yes"/>
      <point x="227" y="277"/>
      <point x="262" y="324"/>
      <point x="302" y="386" type="curve" smooth="yes"/>
      <point x="377" y="499"/>
      <point x="414" y="503"/>
      <point x="495" y="384" type="curve" smooth="yes"/>
      <point x="577" y="263"/>
      <point x="566" y="233"/>
      <point x="531" y="210" type="curve" smooth="yes"/>
      <point x="475" y="174"/>
      <point x="426" y="249"/>
      <point x="483" y="286" type="curve" smooth="yes"/>
      <point x="484" y="287"/>
      <point x="424" y="329"/>
      <point x="421" y="334" type="curve" smooth="yes"/>
      <point x="394" y="373"/>
      <point x="402" y="374"/>
      <point x="378" y="336" type="curve" smooth="yes"/>
      <point x="336" y="274"/>
      <point x="301" y="226"/>
      <point x="269" y="180" type="curve" smooth="yes"/>
      <point x="231" y="124"/>
      <point x="157" y="175"/>
    </contour>
  </outline>
</glyph>
<glyph name="underscore" format="2">
  <advance width="535"/>
  <unicode hex="005F"/>
  <outline>
    <contour>
      <point x="657" y="-109" type="curve" smooth="yes"/>
      <point x="439" y="-109"/>
      <point x="264" y="-109"/>
      <point x="118" y="-109" type="curve" smooth="yes"/>
      <point x="50" y="-109"/>
      <point x="51" y="-19"/>
      <point x="118" y="-19" type="curve" smooth="yes"/>
      <point x="336" y="-19"/>
      <point x="511" y="-19"/>
      <point x="657" y="-19" type="curve" smooth="yes"/>
      <point x="725" y="-19"/>
      <point x="725" y="-109"/>
    </contour>
  </outline>
</glyph>
<glyph name="b" format="2">
  <advance width="584"/>
  <unicode hex="0062"/>
  <outline>
    <contour>
      <point x="176" y="69" type="curve" smooth="yes"/>
      <point x="188" y="80"/>
      <point x="186" y="119"/>
      <point x="186" y="165" type="curve" smooth="yes"/>
      <point x="186" y="277"/>
      <point x="282" y="361"/>
      <point x="425" y="361" type="curve" smooth="yes"/>
      <point x="567" y="361"/>
      <point x="666" y="274"/>
      <point x="666" y="164" type="curve" smooth="yes"/>
      <point x="666" y="50"/>
      <point x="535" y="-16"/>
      <point x="348" y="18" type="curve" smooth="yes"/>
      <point x="151" y="53"/>
      <point x="65" y="156"/>
      <point x="68" y="219" type="curve" smooth="yes"/>
      <point x="73" y="387"/>
      <point x="186" y="335"/>
      <point x="186" y="418" type="curve" smooth="yes"/>
      <point x="186" y="432"/>
      <point x="182" y="453"/>
      <point x="174" y="475" type="curve" smooth="yes"/>
      <point x="152" y="539"/>
      <point x="238" y="568"/>
      <point x="260" y="505" type="curve" smooth="yes"/>
      <point x="272" y="470"/>
      <point x="276" y="440"/>
      <point x="276" y="418" type="curve" smooth="yes"/>
      <point x="276" y="283"/>
      <point x="161" y="320"/>
      <point x="158" y="215" type="curve" smooth="yes"/>
      <point x="157" y="185"/>
      <point x="268" y="123"/>
      <point x="364" y="106" type="curve" smooth="yes"/>
      <point x="463" y="89"/>
      <point x="576" y="104"/>
      <point x="576" y="164" type="curve" smooth="yes"/>
      <point x="576" y="229"/>
      <point x="508" y="271"/>
      <point x="425" y="271" type="curve" smooth="yes"/>
      <point x="341" y="271"/>
      <point x="276" y="231"/>
      <point x="276" y="165" type="curve" smooth="yes"/>
      <point x="276" y="50"/>
      <point x="268" y="32"/>
      <point x="238" y="3" type="curve" smooth="yes"/>
      <point x="189" y="-43"/>
      <point x="127" y="22"/>
    </contour>
  </outline>
</glyph>
<glyph name="c" format="2">
  <advance width="475"/>
  <unicode hex="0063"/>
  <outline>
    <contour>
      <point x="462" y="31" type="curve" smooth="yes"/>
      <point x="410" y="31"/>
      <point x="349" y="30"/>
      <point x="310" y="31" type="curve" smooth="yes"/>
      <point x="133" y="33"/>
      <point x="111" y="121"/>
      <point x="332" y="121" type="curve" smooth="yes"/>
      <point x="492" y="121"/>
      <point x="651" y="121"/>
      <point x="737" y="121" type="curve" smooth="yes"/>
      <point x="783" y="121"/>
      <point x="816" y="121"/>
      <point x="823" y="121" type="curve" smooth="yes"/>
      <point x="891" y="121"/>
      <point x="891" y="31"/>
      <point x="823" y="31" type="curve" smooth="yes"/>
      <point x="812" y="31"/>
      <point x="768" y="31"/>
      <point x="737" y="31" type="curve" smooth="yes"/>
      <point x="609" y="31"/>
      <point x="439" y="31"/>
      <point x="332" y="31" type="curve" smooth="yes"/>
      <point x="322" y="31"/>
      <point x="303" y="121"/>
      <point x="312" y="121" type="curve" smooth="yes"/>
      <point x="349" y="120"/>
      <point x="408" y="121"/>
      <point x="462" y="121" type="curve" smooth="yes"/>
      <point x="530" y="121"/>
      <point x="530" y="31"/>
    </contour>
  </outline>
</glyph>
<glyph name="f" format="2">
  <advance width="364"/>
  <unicode hex="0066"/>
  <outline>
    <contour>
      <point x="414" y="467" type="curve" smooth="yes"/>
      <point x="398" y="461"/>
      <point x="328" y="437"/>
      <point x="328" y="401" type="curve" smooth="yes"/>
      <point x="328" y="280"/>
      <point x="328" y="173"/>
      <point x="328" y="126" type="curve" smooth="yes"/>
      <point x="328" y="66"/>
      <point x="319" y="21"/>
      <point x="287" y="-3" type="curve" smooth="yes"/>
      <point x="233" y="-44"/>
      <point x="179" y="28"/>
      <point x="233" y="69" type="curve" smooth="yes"/>
      <point x="236" y="71"/>
      <point x="238" y="120"/>
      <point x="238" y="126" type="curve" smooth="yes"/>
      <point x="238" y="197"/>
      <point x="238" y="320"/>
      <point x="238" y="401" type="curve" smooth="yes"/>
      <point x="238" y="497"/>
      <point x="341" y="535"/>
      <point x="382" y="551" type="curve" smooth="yes"/>
      <point x="445" y="575"/>
      <point x="477" y="491"/>
    </contour>
    <contour>
      <point x="389" y="292" type="curve" smooth="yes"/>
      <point x="351" y="292"/>
      <point x="311" y="298"/>
      <point x="265" y="312" type="curve" smooth="yes"/>
      <point x="261" y="313"/>
      <point x="204" y="331"/>
      <point x="203" y="330" type="curve"/>
      <point x="193" y="312"/>
      <point x="179" y="292"/>
      <point x="137" y="292" type="curve" smooth="yes"/>
      <point x="70" y="292"/>
      <point x="70" y="382"/>
      <point x="137" y="382" type="curve" smooth="yes"/>
      <point x="139" y="382"/>
      <point x="127" y="377"/>
      <point x="129" y="380" type="curve" smooth="yes"/>
      <point x="148" y="410"/>
      <point x="185" y="426"/>
      <point x="289" y="398" type="curve" smooth="yes"/>
      <point x="327" y="388"/>
      <point x="359" y="382"/>
      <point x="389" y="382" type="curve" smooth="yes"/>
      <point x="457" y="382"/>
      <point x="457" y="292"/>
    </contour>
  </outline>
</glyph>
<glyph name="k" format="2">
  <advance width="501"/>
  <unicode hex="006B"/>
  <outline>
    <contour>
      <point x="258" y="511" type="curve" smooth="yes"/>
      <point x="273" y="464"/>
      <point x="280" y="423"/>
      <point x="280" y="388" type="curve" smooth="yes"/>
      <point x="280" y="277"/>
      <point x="280" y="187"/>
      <point x="280" y="112" type="curve" smooth="yes"/>
      <point x="280" y="71"/>
      <point x="271" y="36"/>
      <point x="252" y="8" type="curve" smooth="yes"/>
      <point x="215" y="-48"/>
      <point x="140" y="2"/>
      <point x="178" y="58" type="curve" smooth="yes"/>
      <point x="187" y="72"/>
      <point x="190" y="92"/>
      <point x="190" y="112" type="curve" smooth="yes"/>
      <point x="190" y="224"/>
      <point x="190" y="314"/>
      <point x="190" y="388" type="curve" smooth="yes"/>
      <point x="190" y="415"/>
      <point x="185" y="446"/>
      <point x="172" y="481" type="curve" smooth="yes"/>
      <point x="151" y="545"/>
      <point x="236" y="574"/>
    </contour>
    <contour>
      <point x="556" y="276" type="curve" smooth="yes"/>
      <point x="500" y="244"/>
      <point x="426" y="218"/>
      <point x="325" y="209" type="curve" smooth="yes"/>
      <point x="315" y="208"/>
      <point x="333" y="205"/>
      <point x="343" y="199" type="curve" smooth="yes"/>
      <point x="438" y="141"/>
      <point x="512" y="93"/>
      <point x="568" y="57" type="curve" smooth="yes"/>
      <point x="625" y="20"/>
      <point x="576" y="-55"/>
      <point x="520" y="-19" type="curve" smooth="yes"/>
      <point x="464" y="17"/>
      <point x="390" y="65"/>
      <point x="295" y="123" type="curve" smooth="yes"/>
      <point x="121" y="230"/>
      <point x="135" y="284"/>
      <point x="317" y="299" type="curve" smooth="yes"/>
      <point x="402" y="306"/>
      <point x="464" y="328"/>
      <point x="512" y="354" type="curve" smooth="yes"/>
      <point x="571" y="387"/>
      <point x="615" y="309"/>
    </contour>
  </outline>
</glyph>
<glyph name="m" format="2">
  <advance width="828"/>
  <unicode hex="006D"/>
  <outline>
    <contour>
      <point x="240" y="359" type="curve" smooth="yes"/>
      <point x="275" y="300"/>
      <point x="276" y="263"/>
      <point x="276" y="230" type="curve" smooth="yes"/>
      <point x="276" y="207"/>
      <point x="276" y="121"/>
      <point x="276" y="81" type="curve" smooth="yes"/>
      <point x="276" y="-68"/>
      <point x="66" y="17"/>
      <point x="66" y="168" type="curve" smooth="yes"/>
      <point x="66" y="209"/>
      <point x="66" y="240"/>
      <point x="66" y="272" type="curve" smooth="yes"/>
      <point x="66" y="394"/>
      <point x="225" y="391"/>
      <point x="412" y="362" type="curve" smooth="yes"/>
      <point x="535" y="343"/>
      <point x="583" y="306"/>
      <point x="583" y="205" type="curve" smooth="yes"/>
      <point x="583" y="172"/>
      <point x="583" y="137"/>
      <point x="583" y="115" type="curve" smooth="yes"/>
      <point x="583" y="-74"/>
      <point x="373" y="10"/>
      <point x="373" y="199" type="curve" smooth="yes"/>
      <point x="373" y="233"/>
      <point x="373" y="244"/>
      <point x="373" y="272" type="curve" smooth="yes"/>
      <point x="373" y="394"/>
      <point x="532" y="391"/>
      <point x="719" y="362" type="curve" smooth="yes"/>
      <point x="842" y="343"/>
      <point x="890" y="306"/>
      <point x="890" y="205" type="curve" smooth="yes"/>
      <point x="890" y="172"/>
      <point x="890" y="137"/>
      <point x="890" y="115" type="curve" smooth="yes"/>
      <point x="890" y="61"/>
      <point x="881" y="16"/>
      <point x="830" y="-2" type="curve" smooth="yes"/>
      <point x="767" y="-25"/>
      <point x="736" y="59"/>
      <point x="800" y="82" type="curve" smooth="yes"/>
      <point x="802" y="83"/>
      <point x="800" y="113"/>
      <point x="800" y="115" type="curve" smooth="yes"/>
      <point x="800" y="148"/>
      <point x="800" y="183"/>
      <point x="800" y="205" type="curve" smooth="yes"/>
      <point x="800" y="260"/>
      <point x="773" y="263"/>
      <point x="705" y="274" type="curve" smooth="yes"/>
      <point x="653" y="282"/>
      <point x="463" y="306"/>
      <point x="463" y="272" type="curve" smooth="yes"/>
      <point x="463" y="231"/>
      <point x="463" y="222"/>
      <point x="463" y="199" type="curve" smooth="yes"/>
      <point x="463" y="170"/>
      <point x="493" y="86"/>
      <point x="493" y="115" type="curve" smooth="yes"/>
      <point x="493" y="148"/>
      <point x="493" y="183"/>
      <point x="493" y="205" type="curve" smooth="yes"/>
      <point x="493" y="260"/>
      <point x="466" y="263"/>
      <point x="398" y="274" type="curve" smooth="yes"/>
      <point x="346" y="282"/>
      <point x="156" y="306"/>
      <point x="156" y="272" type="curve" smooth="yes"/>
      <point x="156" y="224"/>
      <point x="156" y="196"/>
      <point x="156" y="168" type="curve" smooth="yes"/>
      <point x="156" y="162"/>
      <point x="186" y="75"/>
      <point x="186" y="81" type="curve" smooth="yes"/>
      <point x="186" y="141"/>
      <point x="186" y="214"/>
      <point x="186" y="230" type="curve" smooth="yes"/>
      <point x="186" y="253"/>
      <point x="187" y="272"/>
      <point x="162" y="313" type="curve" smooth="yes"/>
      <point x="128" y="371"/>
      <point x="205" y="417"/>
    </contour>
  </outline>
</glyph>
<glyph name="n" format="2">
  <advance width="568"/>
  <unicode hex="006E"/>
  <outline>
    <contour>
      <point x="-1450.96377278011" y="80.29408153127588" type="curve" smooth="yes"/>
      <point x="-1448.7013138864722" y="81.0940309186256"/>
      <point x="-1450.9754891061284" y="109.70647552509935"/>
      <point x="-1450.9759079586463" y="112.10632368714867" type="curve" smooth="yes"/>
      <point x="-1450.9798433452588" y="134.65442816725158"/>
      <point x="-1450.9847565412874" y="162.80496794741157"/>
      <point x="-1450.9904707415362" y="195.54492386716126" type="curve" smooth="yes"/>
      <point x="-1451.000337520593" y="252.07740388565728"/>
      <point x="-1475.3171824950084" y="251.44648859406226"/>
      <point x="-1570.4092070176723" y="271.75317961993005" type="curve" smooth="yes"/>
      <point x="-1666.0064597787984" y="292.16776101607326"/>
      <point x="-1836.0102662145182" y="309.0139355277036"/>
      <point x="-1836.0009550178681" y="255.66470823096697" type="curve" smooth="yes"/>
      <point x="-1835.9953042063216" y="223.28794282363984"/>
      <point x="-1835.9923760379904" y="206.51077403245688"/>
      <point x="-1835.985158100835" y="165.1550402390889" type="curve" smooth="yes"/>
      <point x="-1835.984050468622" y="158.8087750994472"/>
      <point x="-1805.9692413158295" y="73.9402533941126"/>
      <point x="-1805.9703489480426" y="80.2865185337541" type="curve" smooth="yes"/>
      <point x="-1805.9773115551268" y="120.17931876778196"/>
      <point x="-1805.9933953471468" y="212.33265936715432"/>
      <point x="-1805.9960189382216" y="227.36472902055618" type="curve" smooth="yes"/>
      <point x="-1806.0000220507056" y="250.30087416404726"/>
      <point x="-1805.1604682875538" y="269.9709873659921"/>
      <point x="-1829.4949290117354" y="310.1092413671016" type="curve" smooth="yes"/>
      <point x="-1864.488967231102" y="367.82983811645545"/>
      <point x="-1787.5281715652968" y="414.4885557422774"/>
      <point x="-1752.5341333459303" y="356.7679589929236" type="curve" smooth="yes"/>
      <point x="-1716.8900653516785" y="297.97517656794093"/>
      <point x="-1716.0018838954252" y="260.9763126549234"/>
      <point x="-1715.9960203089997" y="227.38043698350475" type="curve" smooth="yes"/>
      <point x="-1715.99211059304" y="204.9794145120971"/>
      <point x="-1715.9807261034828" y="139.75109382466977"/>
      <point x="-1715.9703503188207" y="80.30222649670307" type="curve" smooth="yes"/>
      <point x="-1715.9442916205153" y="-69.00311750859682"/>
      <point x="-1925.9590980317514" y="15.833988270839885"/>
      <point x="-1925.9851567300568" y="165.1393322761397" type="curve" smooth="yes"/>
      <point x="-1925.9900002828106" y="192.89084548241996"/>
      <point x="-1925.9925327204078" y="207.40064417575522"/>
      <point x="-1926.00095364709" y="255.64900026801777" type="curve" smooth="yes"/>
      <point x="-1926.022467499105" y="378.9142930435904"/>
      <point x="-1772.4945543840815" y="406.93730023806563"/>
      <point x="-1551.6136916754779" y="359.7686816807678" type="curve" smooth="yes"/>
      <point x="-1389.0067750270414" y="325.04433511622653"/>
      <point x="-1361.007344258298" y="292.230907938345"/>
      <point x="-1360.9904721123144" y="195.5606318301104" type="curve" smooth="yes"/>
      <point x="-1360.9866376330508" y="173.5906838751384"/>
      <point x="-1360.981773903364" y="145.72356535720937"/>
      <point x="-1360.9759093294244" y="112.12203165009778" type="curve" smooth="yes"/>
      <point x="-1360.9664251469173" y="57.781668395552316"/>
      <point x="-1369.7327031523473" y="13.555304174977396"/>
      <point x="-1420.9621267771008" y="-4.558150243204416" type="curve" smooth="yes"/>
      <point x="-1484.601300607961" y="-27.05938474546122"/>
      <point x="-1514.6029466109703" y="57.79284702901907"/>
    </contour>
  </outline>
</glyph>
<glyph name="p" format="2">
  <advance width="584"/>
  <unicode hex="0070"/>
  <outline>
    <contour>
      <point x="187" y="-33" type="curve" smooth="yes"/>
      <point x="189" y="-33"/>
      <point x="186" y="-5"/>
      <point x="186" y="-3" type="curve" smooth="yes"/>
      <point x="186" y="66"/>
      <point x="186" y="121"/>
      <point x="186" y="168" type="curve" smooth="yes"/>
      <point x="186" y="278"/>
      <point x="282" y="363"/>
      <point x="425" y="363" type="curve" smooth="yes"/>
      <point x="567" y="363"/>
      <point x="666" y="278"/>
      <point x="666" y="166" type="curve" smooth="yes"/>
      <point x="666" y="53"/>
      <point x="536" y="-14"/>
      <point x="348" y="20" type="curve" smooth="yes"/>
      <point x="141" y="57"/>
      <point x="36" y="177"/>
      <point x="81" y="264" type="curve" smooth="yes"/>
      <point x="97" y="294"/>
      <point x="92" y="330"/>
      <point x="70" y="376" type="curve" smooth="yes"/>
      <point x="41" y="437"/>
      <point x="123" y="475"/>
      <point x="152" y="414" type="curve" smooth="yes"/>
      <point x="189" y="335"/>
      <point x="188" y="273"/>
      <point x="161" y="222" type="curve" smooth="yes"/>
      <point x="143" y="189"/>
      <point x="284" y="123"/>
      <point x="364" y="108" type="curve" smooth="yes"/>
      <point x="463" y="91"/>
      <point x="576" y="107"/>
      <point x="576" y="166" type="curve" smooth="yes"/>
      <point x="576" y="232"/>
      <point x="509" y="273"/>
      <point x="425" y="273" type="curve" smooth="yes"/>
      <point x="341" y="273"/>
      <point x="276" y="233"/>
      <point x="276" y="168" type="curve" smooth="yes"/>
      <point x="276" y="99"/>
      <point x="276" y="44"/>
      <point x="276" y="-3" type="curve" smooth="yes"/>
      <point x="276" y="-58"/>
      <point x="267" y="-102"/>
      <point x="215" y="-119" type="curve" smooth="yes"/>
      <point x="151" y="-140"/>
      <point x="123" y="-55"/>
    </contour>
  </outline>
</glyph>
<glyph name="q" format="2">
  <advance width="584"/>
  <unicode hex="0071"/>
  <outline>
    <contour>
      <point x="452" y="-46" type="curve" smooth="yes"/>
      <point x="434" y="-1"/>
      <point x="429" y="35"/>
      <point x="429" y="68" type="curve" smooth="yes"/>
      <point x="429" y="105"/>
      <point x="428" y="171"/>
      <point x="434" y="230" type="curve" smooth="yes"/>
      <point x="438" y="263"/>
      <point x="446" y="272"/>
      <point x="422" y="266" type="curve" smooth="yes"/>
      <point x="371" y="252"/>
      <point x="249" y="220"/>
      <point x="249" y="164" type="curve" smooth="yes"/>
      <point x="249" y="98"/>
      <point x="315" y="57"/>
      <point x="399" y="57" type="curve" smooth="yes"/>
      <point x="482" y="57"/>
      <point x="549" y="98"/>
      <point x="549" y="164" type="curve" smooth="yes"/>
      <point x="549" y="219"/>
      <point x="550" y="265"/>
      <point x="532" y="310" type="curve" smooth="yes"/>
      <point x="507" y="372"/>
      <point x="591" y="405"/>
      <point x="616" y="342" type="curve" smooth="yes"/>
      <point x="638" y="285"/>
      <point x="639" y="235"/>
      <point x="639" y="164" type="curve" smooth="yes"/>
      <point x="639" y="52"/>
      <point x="540" y="-33"/>
      <point x="399" y="-33" type="curve" smooth="yes"/>
      <point x="257" y="-33"/>
      <point x="159" y="52"/>
      <point x="159" y="164" type="curve" smooth="yes"/>
      <point x="159" y="280"/>
      <point x="292" y="323"/>
      <point x="398" y="352" type="curve" smooth="yes"/>
      <point x="509" y="383"/>
      <point x="540" y="373"/>
      <point x="524" y="220" type="curve" smooth="yes"/>
      <point x="518" y="167"/>
      <point x="519" y="102"/>
      <point x="519" y="68" type="curve" smooth="yes"/>
      <point x="519" y="45"/>
      <point x="522" y="21"/>
      <point x="536" y="-12" type="curve" smooth="yes"/>
      <point x="561" y="-74"/>
      <point x="478" y="-109"/>
    </contour>
  </outline>
</glyph>
<glyph name="x" format="2">
  <advance width="499"/>
  <unicode hex="0078"/>
  <outline>
    <contour>
      <point x="220" y="363" type="curve" smooth="yes"/>
      <point x="254" y="335"/>
      <point x="285" y="307"/>
      <point x="301" y="293" type="curve" smooth="yes"/>
      <point x="326" y="268"/>
      <point x="411" y="191"/>
      <point x="496" y="115" type="curve" smooth="yes"/>
      <point x="522" y="92"/>
      <point x="540" y="74"/>
      <point x="549" y="63" type="curve" smooth="yes"/>
      <point x="595" y="13"/>
      <point x="528" y="-47"/>
      <point x="483" y="3" type="curve" smooth="yes"/>
      <point x="474" y="12"/>
      <point x="458" y="28"/>
      <point x="436" y="47" type="curve" smooth="yes"/>
      <point x="349" y="125"/>
      <point x="262" y="204"/>
      <point x="239" y="227" type="curve" smooth="yes"/>
      <point x="225" y="241"/>
      <point x="194" y="267"/>
      <point x="162" y="295" type="curve" smooth="yes"/>
      <point x="110" y="338"/>
      <point x="169" y="407"/>
    </contour>
    <contour>
      <point x="572" y="297" type="curve" smooth="yes"/>
      <point x="560" y="270"/>
      <point x="547" y="242"/>
      <point x="535" y="215" type="curve" smooth="yes"/>
      <point x="491" y="121"/>
      <point x="412" y="49"/>
      <point x="318" y="20" type="curve" smooth="yes"/>
      <point x="285" y="10"/>
      <point x="250" y="-9"/>
      <point x="220" y="-22" type="curve" smooth="yes"/>
      <point x="158" y="-49"/>
      <point x="122" y="33"/>
      <point x="184" y="60" type="curve" smooth="yes"/>
      <point x="222" y="77"/>
      <point x="251" y="94"/>
      <point x="292" y="106" type="curve" smooth="yes"/>
      <point x="362" y="127"/>
      <point x="421" y="183"/>
      <point x="453" y="251" type="curve" smooth="yes"/>
      <point x="465" y="278"/>
      <point x="478" y="306"/>
      <point x="490" y="333" type="curve" smooth="yes"/>
      <point x="517" y="395"/>
      <point x="600" y="358"/>
    </contour>
    <contour>
      <point x="121" y="433" type="curve" smooth="yes"/>
      <point x="149" y="408"/>
      <point x="172" y="387"/>
      <point x="190" y="370" type="curve" smooth="yes"/>
      <point x="205" y="358"/>
      <point x="217" y="345"/>
      <point x="233" y="331" type="curve" smooth="yes"/>
      <point x="293" y="277"/>
      <point x="291" y="232"/>
      <point x="232" y="179" type="curve" smooth="yes"/>
      <point x="216" y="164"/>
      <point x="200" y="149"/>
      <point x="184" y="135" type="curve" smooth="yes"/>
      <point x="163" y="117"/>
      <point x="136" y="92"/>
      <point x="112" y="71" type="curve" smooth="yes"/>
      <point x="63" y="25"/>
      <point x="2" y="92"/>
      <point x="52" y="137" type="curve" smooth="yes"/>
      <point x="76" y="160"/>
      <point x="103" y="185"/>
      <point x="124" y="203" type="curve" smooth="yes"/>
      <point x="140" y="217"/>
      <point x="156" y="232"/>
      <point x="172" y="245" type="curve" smooth="yes"/>
      <point x="184" y="256"/>
      <point x="184" y="253"/>
      <point x="171" y="265" type="curve" smooth="yes"/>
      <point x="159" y="277"/>
      <point x="143" y="292"/>
      <point x="130" y="304" type="curve" smooth="yes"/>
      <point x="102" y="329"/>
      <point x="79" y="350"/>
      <point x="61" y="367" type="curve" smooth="yes"/>
      <point x="11" y="412"/>
      <point x="71" y="479"/>
    </contour>
  </outline>
</glyph>
<glyph name="y" format="2">
  <advance width="488"/>
  <unicode hex="0079"/>
  <outline>
    <contour>
      <point x="125" y="11" type="curve" smooth="yes"/>
      <point x="139" y="33"/>
      <point x="154" y="56"/>
      <point x="168" y="78" type="curve"/>
      <point x="176" y="92"/>
      <point x="184" y="106"/>
      <point x="192" y="117" type="curve" smooth="yes"/>
      <point x="208" y="142"/>
      <point x="219" y="151"/>
      <point x="224" y="172" type="curve" smooth="yes"/>
      <point x="224" y="175"/>
      <point x="149" y="286"/>
      <point x="146" y="290" type="curve" smooth="yes"/>
      <point x="109" y="347"/>
      <point x="185" y="396"/>
      <point x="222" y="340" type="curve" smooth="yes"/>
      <point x="295" y="228"/>
      <point x="320" y="186"/>
      <point x="312" y="154" type="curve" smooth="yes"/>
      <point x="303" y="112"/>
      <point x="300" y="119"/>
      <point x="266" y="65" type="curve" smooth="yes"/>
      <point x="260" y="56"/>
      <point x="252" y="44"/>
      <point x="244" y="30" type="curve" smooth="yes"/>
      <point x="230" y="8"/>
      <point x="215" y="-15"/>
      <point x="201" y="-37" type="curve" smooth="yes"/>
      <point x="165" y="-94"/>
      <point x="89" y="-46"/>
    </contour>
    <contour>
      <point x="570" y="328" type="curve" smooth="yes"/>
      <point x="569" y="269"/>
      <point x="539" y="221"/>
      <point x="520" y="191" type="curve" smooth="yes"/>
      <point x="478" y="124"/>
      <point x="416" y="28"/>
      <point x="387" y="-18" type="curve" smooth="yes"/>
      <point x="379" y="-31"/>
      <point x="370" y="-44"/>
      <point x="362" y="-57" type="curve" smooth="yes"/>
      <point x="348" y="-79"/>
      <point x="335" y="-100"/>
      <point x="321" y="-122" type="curve" smooth="yes"/>
      <point x="285" y="-179"/>
      <point x="209" y="-131"/>
      <point x="245" y="-74" type="curve" smooth="yes"/>
      <point x="259" y="-52"/>
      <point x="272" y="-31"/>
      <point x="286" y="-9" type="curve" smooth="yes"/>
      <point x="294" y="4"/>
      <point x="303" y="17"/>
      <point x="311" y="30" type="curve" smooth="yes"/>
      <point x="339" y="75"/>
      <point x="401" y="170"/>
      <point x="444" y="239" type="curve" smooth="yes"/>
      <point x="455" y="257"/>
      <point x="479" y="294"/>
      <point x="480" y="330" type="curve" smooth="yes"/>
      <point x="481" y="397"/>
      <point x="571" y="396"/>
    </contour>
  </outline>
</glyph>
<glyph name="braceleft" format="2">
  <advance width="466"/>
  <unicode hex="007B"/>
  <outline>
    <contour>
      <point x="490" y="451" type="curve" smooth="yes"/>
      <point x="448" y="462"/>
      <point x="409" y="463"/>
      <point x="380" y="458" type="curve" smooth="yes"/>
      <point x="358" y="453"/>
      <point x="336" y="444"/>
      <point x="336" y="426" type="curve" smooth="yes"/>
      <point x="336" y="401"/>
      <point x="399" y="287"/>
      <point x="307" y="259" type="curve" smooth="yes"/>
      <point x="268" y="248"/>
      <point x="210" y="243"/>
      <point x="126" y="243" type="curve" smooth="yes"/>
      <point x="121" y="243"/>
      <point x="241" y="248"/>
      <point x="246" y="248" type="curve" smooth="yes"/>
      <point x="359" y="248"/>
      <point x="394" y="196"/>
      <point x="394" y="144" type="curve" smooth="yes"/>
      <point x="394" y="78"/>
      <point x="336" y="19"/>
      <point x="336" y="-19" type="curve" smooth="yes"/>
      <point x="336" y="-35"/>
      <point x="355" y="-44"/>
      <point x="375" y="-49" type="curve" smooth="yes"/>
      <point x="406" y="-57"/>
      <point x="446" y="-55"/>
      <point x="490" y="-44" type="curve" smooth="yes"/>
      <point x="556" y="-28"/>
      <point x="577" y="-116"/>
      <point x="512" y="-132" type="curve" smooth="yes"/>
      <point x="450" y="-147"/>
      <point x="396" y="-147"/>
      <point x="353" y="-137" type="curve" smooth="yes"/>
      <point x="285" y="-120"/>
      <point x="246" y="-75"/>
      <point x="246" y="-19" type="curve" smooth="yes"/>
      <point x="246" y="49"/>
      <point x="304" y="108"/>
      <point x="304" y="144" type="curve" smooth="yes"/>
      <point x="304" y="155"/>
      <point x="269" y="158"/>
      <point x="246" y="158" type="curve" smooth="yes"/>
      <point x="100" y="158"/>
      <point x="-22" y="333"/>
      <point x="126" y="333" type="curve" smooth="yes"/>
      <point x="194" y="333"/>
      <point x="250" y="336"/>
      <point x="281" y="345" type="curve" smooth="yes"/>
      <point x="287" y="347"/>
      <point x="246" y="63"/>
      <point x="246" y="426" type="curve" smooth="yes"/>
      <point x="246" y="486"/>
      <point x="289" y="531"/>
      <point x="364" y="546" type="curve" smooth="yes"/>
      <point x="404" y="553"/>
      <point x="456" y="552"/>
      <point x="512" y="539" type="curve" smooth="yes"/>
      <point x="577" y="523"/>
      <point x="556" y="435"/>
    </contour>
  </outline>
</glyph>
<glyph name="braceright" format="2">
  <advance width="466"/>
  <unicode hex="007D"/>
  <outline>
    <contour>
      <point x="216" y="-44" type="curve" smooth="yes"/>
      <point x="260" y="-55"/>
      <point x="300" y="-57"/>
      <point x="331" y="-49" type="curve" smooth="yes"/>
      <point x="351" y="-44"/>
      <point x="370" y="-35"/>
      <point x="370" y="-19" type="curve" smooth="yes"/>
      <point x="370" y="19"/>
      <point x="312" y="78"/>
      <point x="312" y="144" type="curve" smooth="yes"/>
      <point x="312" y="196"/>
      <point x="347" y="248"/>
      <point x="460" y="248" type="curve" smooth="yes"/>
      <point x="465" y="248"/>
      <point x="345" y="243"/>
      <point x="340" y="243" type="curve" smooth="yes"/>
      <point x="184" y="243"/>
      <point x="218" y="325"/>
      <point x="290" y="345" type="curve" smooth="yes"/>
      <point x="315" y="353"/>
      <point x="370" y="396"/>
      <point x="370" y="426" type="curve" smooth="yes"/>
      <point x="370" y="444"/>
      <point x="348" y="453"/>
      <point x="325" y="458" type="curve" smooth="yes"/>
      <point x="297" y="463"/>
      <point x="258" y="462"/>
      <point x="216" y="451" type="curve" smooth="yes"/>
      <point x="150" y="435"/>
      <point x="129" y="523"/>
      <point x="194" y="539" type="curve" smooth="yes"/>
      <point x="250" y="552"/>
      <point x="302" y="553"/>
      <point x="343" y="546" type="curve" smooth="yes"/>
      <point x="417" y="531"/>
      <point x="460" y="486"/>
      <point x="460" y="426" type="curve" smooth="yes"/>
      <point x="460" y="353"/>
      <point x="380" y="279"/>
      <point x="314" y="259" type="curve" smooth="yes"/>
      <point x="312" y="258"/>
      <point x="334" y="333"/>
      <point x="340" y="333" type="curve" smooth="yes"/>
      <point x="488" y="333"/>
      <point x="606" y="158"/>
      <point x="460" y="158" type="curve" smooth="yes"/>
      <point x="437" y="158"/>
      <point x="402" y="155"/>
      <point x="402" y="144" type="curve" smooth="yes"/>
      <point x="402" y="108"/>
      <point x="460" y="49"/>
      <point x="460" y="-19" type="curve" smooth="yes"/>
      <point x="460" y="-75"/>
      <point x="421" y="-120"/>
      <point x="353" y="-137" type="curve" smooth="yes"/>
      <point x="310" y="-147"/>
      <point x="256" y="-147"/>
      <point x="194" y="-132" type="curve" smooth="yes"/>
      <point x="129" y="-116"/>
      <point x="150" y="-28"/>
    </contour>
  </outline>
</glyph>
<glyph name="yen" format="2">
  <advance width="599"/>
  <unicode hex="00A5"/>
  <outline>
    <contour>
      <point x="529" y="122" type="curve" smooth="yes"/>
      <point x="430" y="100"/>
      <point x="296" y="99"/>
      <point x="134" y="121" type="curve" smooth="yes"/>
      <point x="67" y="130"/>
      <point x="79" y="220"/>
      <point x="146" y="211" type="curve" smooth="yes"/>
      <point x="294" y="191"/>
      <point x="419" y="190"/>
      <point x="509" y="210" type="curve" smooth="yes"/>
      <point x="575" y="225"/>
      <point x="595" y="137"/>
    </contour>
    <contour>
      <point x="660" y="408" type="curve" smooth="yes"/>
      <point x="610" y="367"/>
      <point x="519" y="317"/>
      <point x="453" y="294" type="curve" smooth="yes"/>
      <point x="352" y="261"/>
      <point x="336" y="241"/>
      <point x="245" y="241" type="curve" smooth="yes"/>
      <point x="191" y="241"/>
      <point x="165" y="241"/>
      <point x="130" y="241" type="curve" smooth="yes"/>
      <point x="63" y="241"/>
      <point x="63" y="331"/>
      <point x="130" y="331" type="curve" smooth="yes"/>
      <point x="182" y="331"/>
      <point x="209" y="331"/>
      <point x="245" y="331" type="curve" smooth="yes"/>
      <point x="317" y="331"/>
      <point x="345" y="353"/>
      <point x="423" y="380" type="curve" smooth="yes"/>
      <point x="479" y="399"/>
      <point x="560" y="443"/>
      <point x="602" y="478" type="curve" smooth="yes"/>
      <point x="654" y="521"/>
      <point x="712" y="451"/>
    </contour>
    <contour>
      <point x="241" y="474" type="curve" smooth="yes"/>
      <point x="265" y="450"/>
      <point x="291" y="422"/>
      <point x="316" y="395" type="curve" smooth="yes"/>
      <point x="354" y="355"/>
      <point x="390" y="314"/>
      <point x="417" y="285" type="curve" smooth="yes"/>
      <point x="463" y="232"/>
      <point x="465" y="206"/>
      <point x="465" y="149" type="curve" smooth="yes"/>
      <point x="465" y="95"/>
      <point x="465" y="54"/>
      <point x="465" y="19" type="curve" smooth="yes"/>
      <point x="465" y="-49"/>
      <point x="375" y="-48"/>
      <point x="375" y="19" type="curve" smooth="yes"/>
      <point x="375" y="71"/>
      <point x="375" y="113"/>
      <point x="375" y="149" type="curve" smooth="yes"/>
      <point x="375" y="185"/>
      <point x="379" y="192"/>
      <point x="349" y="225" type="curve" smooth="yes"/>
      <point x="324" y="254"/>
      <point x="288" y="293"/>
      <point x="250" y="333" type="curve" smooth="yes"/>
      <point x="225" y="360"/>
      <point x="199" y="388"/>
      <point x="177" y="412" type="curve" smooth="yes"/>
      <point x="130" y="461"/>
      <point x="195" y="523"/>
    </contour>
    <contour>
      <point x="413" y="315" type="curve" smooth="yes"/>
      <point x="473" y="299"/>
      <point x="511" y="293"/>
      <point x="535" y="301" type="curve" smooth="yes"/>
      <point x="599" y="322"/>
      <point x="627" y="236"/>
      <point x="563" y="215" type="curve" smooth="yes"/>
      <point x="526" y="203"/>
      <point x="483" y="203"/>
      <point x="389" y="229" type="curve" smooth="yes"/>
      <point x="324" y="246"/>
      <point x="348" y="333"/>
    </contour>
  </outline>
</glyph>
<glyph name="macron" format="2">
  <advance width="490"/>
  <unicode hex="00AF"/>
  <outline>
    <contour>
      <point x="501" y="451" type="curve" smooth="yes"/>
      <point x="480" y="405"/>
      <point x="349" y="381"/>
      <point x="197" y="427" type="curve" smooth="yes"/>
      <point x="132" y="446"/>
      <point x="158" y="533"/>
      <point x="223" y="513" type="curve" smooth="yes"/>
      <point x="238" y="508"/>
      <point x="417" y="484"/>
      <point x="419" y="489" type="curve" smooth="yes"/>
      <point x="448" y="550"/>
      <point x="529" y="512"/>
    </contour>
  </outline>
</glyph>
<glyph name="degree" format="2">
  <advance width="532"/>
  <unicode hex="00B0"/>
  <outline>
    <contour>
      <point x="298" y="198" type="curve" smooth="yes"/>
      <point x="233" y="198"/>
      <point x="180" y="249"/>
      <point x="180" y="331" type="curve" smooth="yes"/>
      <point x="180" y="421"/>
      <point x="260" y="492"/>
      <point x="385" y="492" type="curve" smooth="yes"/>
      <point x="511" y="492"/>
      <point x="593" y="421"/>
      <point x="593" y="331" type="curve" smooth="yes"/>
      <point x="593" y="256"/>
      <point x="529" y="198"/>
      <point x="413" y="198" type="curve" smooth="yes"/>
      <point x="346" y="198"/>
      <point x="346" y="288"/>
      <point x="413" y="288" type="curve" smooth="yes"/>
      <point x="459" y="288"/>
      <point x="503" y="301"/>
      <point x="503" y="331" type="curve" smooth="yes"/>
      <point x="503" y="376"/>
      <point x="448" y="402"/>
      <point x="385" y="402" type="curve" smooth="yes"/>
      <point x="322" y="402"/>
      <point x="270" y="376"/>
      <point x="270" y="331" type="curve" smooth="yes"/>
      <point x="270" y="306"/>
      <point x="278" y="288"/>
      <point x="298" y="288" type="curve" smooth="yes"/>
      <point x="366" y="288"/>
      <point x="366" y="198"/>
    </contour>
  </outline>
</glyph>
<glyph name="mu.math" format="2">
  <advance width="568"/>
  <unicode hex="00B5"/>
  <outline>
    <contour>
      <point x="41" y="66" type="curve" smooth="yes"/>
      <point x="55" y="73"/>
      <point x="57" y="91"/>
      <point x="57" y="109" type="curve" smooth="yes"/>
      <point x="57" y="202"/>
      <point x="57" y="277"/>
      <point x="57" y="339" type="curve" smooth="yes"/>
      <point x="57" y="489"/>
      <point x="267" y="402"/>
      <point x="267" y="254" type="curve" smooth="yes"/>
      <point x="267" y="206"/>
      <point x="267" y="169"/>
      <point x="267" y="137" type="curve" smooth="yes"/>
      <point x="267" y="83"/>
      <point x="311" y="60"/>
      <point x="378" y="60" type="curve" smooth="yes"/>
      <point x="458" y="60"/>
      <point x="533" y="99"/>
      <point x="533" y="149" type="curve" smooth="yes"/>
      <point x="533" y="183"/>
      <point x="533" y="233"/>
      <point x="533" y="255" type="curve" smooth="yes"/>
      <point x="533" y="261"/>
      <point x="503" y="345"/>
      <point x="503" y="339" type="curve" smooth="yes"/>
      <point x="503" y="293"/>
      <point x="503" y="227"/>
      <point x="503" y="184" type="curve" smooth="yes"/>
      <point x="503" y="150"/>
      <point x="503" y="120"/>
      <point x="503" y="100" type="curve" smooth="yes"/>
      <point x="503" y="32"/>
      <point x="413" y="33"/>
      <point x="413" y="100" type="curve" smooth="yes"/>
      <point x="413" y="130"/>
      <point x="413" y="161"/>
      <point x="413" y="184" type="curve" smooth="yes"/>
      <point x="413" y="247"/>
      <point x="413" y="308"/>
      <point x="413" y="339" type="curve" smooth="yes"/>
      <point x="413" y="486"/>
      <point x="623" y="402"/>
      <point x="623" y="255" type="curve" smooth="yes"/>
      <point x="623" y="222"/>
      <point x="623" y="172"/>
      <point x="623" y="149" type="curve" smooth="yes"/>
      <point x="623" y="56"/>
      <point x="526" y="-30"/>
      <point x="378" y="-30" type="curve" smooth="yes"/>
      <point x="254" y="-30"/>
      <point x="177" y="36"/>
      <point x="177" y="137" type="curve" smooth="yes"/>
      <point x="177" y="185"/>
      <point x="177" y="222"/>
      <point x="177" y="254" type="curve" smooth="yes"/>
      <point x="177" y="260"/>
      <point x="147" y="345"/>
      <point x="147" y="339" type="curve" smooth="yes"/>
      <point x="147" y="246"/>
      <point x="147" y="171"/>
      <point x="147" y="109" type="curve" smooth="yes"/>
      <point x="147" y="53"/>
      <point x="128" y="10"/>
      <point x="83" y="-14" type="curve" smooth="yes"/>
      <point x="24" y="-45"/>
      <point x="-19" y="34"/>
    </contour>
  </outline>
</glyph>
<glyph name="periodcentered" format="2">
  <advance width="260"/>
  <unicode hex="00B7"/>
  <outline>
    <contour>
      <point x="135" y="233" type="curve" smooth="yes"/>
      <point x="47" y="244"/>
      <point x="48" y="346"/>
      <point x="136" y="354" type="curve" smooth="yes"/>
      <point x="203" y="360"/>
      <point x="211" y="270"/>
      <point x="144" y="264" type="curve" smooth="yes"/>
      <point x="141" y="264"/>
      <point x="143" y="323"/>
      <point x="145" y="323" type="curve" smooth="yes"/>
      <point x="212" y="315"/>
      <point x="202" y="225"/>
    </contour>
  </outline>
</glyph>
<glyph name="cedilla" format="2">
  <advance width="416"/>
  <unicode hex="00B8"/>
  <outline>
    <contour>
      <point x="349" y="18" type="curve" smooth="yes"/>
      <point x="349" y="1"/>
      <point x="344" y="-11"/>
      <point x="363" y="-15" type="curve" smooth="yes"/>
      <point x="433" y="-29"/>
      <point x="451" y="-69"/>
      <point x="451" y="-102" type="curve" smooth="yes"/>
      <point x="451" y="-164"/>
      <point x="397" y="-233"/>
      <point x="175" y="-161" type="curve" smooth="yes"/>
      <point x="111" y="-140"/>
      <point x="139" y="-54"/>
      <point x="203" y="-75" type="curve" smooth="yes"/>
      <point x="245" y="-89"/>
      <point x="361" y="-114"/>
      <point x="361" y="-102" type="curve" smooth="yes"/>
      <point x="361" y="-101"/>
      <point x="349" y="-104"/>
      <point x="347" y="-103" type="curve" smooth="yes"/>
      <point x="275" y="-90"/>
      <point x="259" y="-45"/>
      <point x="259" y="18" type="curve" smooth="yes"/>
      <point x="259" y="86"/>
      <point x="349" y="85"/>
    </contour>
  </outline>
</glyph>
<glyph name="onesuperior" format="2">
  <advance width="338"/>
  <unicode hex="00B9"/>
  <outline>
    <contour>
      <point x="193" y="472" type="curve" smooth="yes"/>
      <point x="351" y="495"/>
      <point x="325" y="470"/>
      <point x="325" y="402" type="curve" smooth="yes"/>
      <point x="325" y="352"/>
      <point x="355" y="274"/>
      <point x="355" y="211" type="curve" smooth="yes"/>
      <point x="355" y="144"/>
      <point x="265" y="144"/>
      <point x="265" y="211" type="curve" smooth="yes"/>
      <point x="265" y="260"/>
      <point x="235" y="338"/>
      <point x="235" y="402" type="curve" smooth="yes"/>
      <point x="235" y="406"/>
      <point x="215" y="384"/>
      <point x="207" y="382" type="curve" smooth="yes"/>
      <point x="140" y="373"/>
      <point x="127" y="462"/>
    </contour>
  </outline>
</glyph>
<glyph name="guillemetright" format="2">
  <advance width="637"/>
  <unicode hex="00BB"/>
  <outline>
    <contour>
      <point x="445" y="102" type="curve" smooth="yes"/>
      <point x="495" y="108"/>
      <point x="561" y="116"/>
      <point x="580" y="154" type="curve" smooth="yes"/>
      <point x="598" y="189"/>
      <point x="578" y="192"/>
      <point x="546" y="214" type="curve" smooth="yes"/>
      <point x="491" y="250"/>
      <point x="498" y="248"/>
      <point x="455" y="278" type="curve" smooth="yes"/>
      <point x="399" y="316"/>
      <point x="450" y="390"/>
      <point x="505" y="352" type="curve" smooth="yes"/>
      <point x="550" y="322"/>
      <point x="543" y="324"/>
      <point x="596" y="288" type="curve" smooth="yes"/>
      <point x="674" y="237"/>
      <point x="704" y="198"/>
      <point x="660" y="114" type="curve" smooth="yes"/>
      <point x="624" y="42"/>
      <point x="550" y="24"/>
      <point x="455" y="12" type="curve" smooth="yes"/>
      <point x="388" y="4"/>
      <point x="378" y="94"/>
    </contour>
    <contour>
      <point x="185" y="102" type="curve" smooth="yes"/>
      <point x="235" y="108"/>
      <point x="301" y="116"/>
      <point x="320" y="154" type="curve" smooth="yes"/>
      <point x="338" y="189"/>
      <point x="318" y="192"/>
      <point x="286" y="214" type="curve" smooth="yes"/>
      <point x="231" y="251"/>
      <point x="238" y="248"/>
      <point x="195" y="278" type="curve" smooth="yes"/>
      <point x="139" y="316"/>
      <point x="190" y="390"/>
      <point x="245" y="352" type="curve" smooth="yes"/>
      <point x="290" y="322"/>
      <point x="283" y="325"/>
      <point x="336" y="288" type="curve" smooth="yes"/>
      <point x="414" y="237"/>
      <point x="444" y="198"/>
      <point x="400" y="114" type="curve" smooth="yes"/>
      <point x="364" y="42"/>
      <point x="290" y="24"/>
      <point x="195" y="12" type="curve" smooth="yes"/>
      <point x="128" y="4"/>
      <point x="118" y="94"/>
    </contour>
  </outline>
</glyph>
<glyph name="onequarter" format="2">
  <advance width="899"/>
  <unicode hex="00BC"/>
  <outline>
    <contour>
      <point x="193" y="472" type="curve" smooth="yes"/>
      <point x="344" y="494"/>
      <point x="355" y="446"/>
      <point x="355" y="381" type="curve" smooth="yes"/>
      <point x="355" y="312"/>
      <point x="355" y="257"/>
      <point x="355" y="211" type="curve" smooth="yes"/>
      <point x="355" y="144"/>
      <point x="265" y="144"/>
      <point x="265" y="211" type="curve" smooth="yes"/>
      <point x="265" y="279"/>
      <point x="265" y="334"/>
      <point x="265" y="381" type="curve" smooth="yes"/>
      <point x="265" y="393"/>
      <point x="235" y="387"/>
      <point x="207" y="382" type="curve" smooth="yes"/>
      <point x="140" y="373"/>
      <point x="127" y="462"/>
    </contour>
    <contour>
      <point x="766" y="413" type="curve" smooth="yes"/>
      <point x="390" y="-11" type="line" smooth="yes"/>
      <point x="345" y="-61"/>
      <point x="278" y="-2"/>
      <point x="322" y="49" type="curve" smooth="yes"/>
      <point x="698" y="473" type="line" smooth="yes"/>
      <point x="743" y="523"/>
      <point x="810" y="464"/>
    </contour>
    <contour>
      <point x="939" y="40" type="curve" smooth="yes"/>
      <point x="866" y="40"/>
      <point x="806" y="40"/>
      <point x="756" y="40" type="curve" smooth="yes"/>
      <point x="650" y="40"/>
      <point x="616" y="102"/>
      <point x="669" y="169" type="curve" smooth="yes"/>
      <point x="687" y="193"/>
      <point x="696" y="204"/>
      <point x="723" y="238" type="curve" smooth="yes"/>
      <point x="792" y="326"/>
      <point x="906" y="303"/>
      <point x="906" y="203" type="curve" smooth="yes"/>
      <point x="906" y="147"/>
      <point x="906" y="72"/>
      <point x="906" y="19" type="curve" smooth="yes"/>
      <point x="906" y="-49"/>
      <point x="816" y="-48"/>
      <point x="816" y="19" type="curve" smooth="yes"/>
      <point x="816" y="98"/>
      <point x="816" y="165"/>
      <point x="816" y="203" type="curve" smooth="yes"/>
      <point x="816" y="207"/>
      <point x="796" y="186"/>
      <point x="793" y="182" type="curve" smooth="yes"/>
      <point x="766" y="148"/>
      <point x="759" y="139"/>
      <point x="739" y="113" type="curve" smooth="yes"/>
      <point x="737" y="110"/>
      <point x="751" y="130"/>
      <point x="756" y="130" type="curve" smooth="yes"/>
      <point x="830" y="130"/>
      <point x="890" y="130"/>
      <point x="939" y="130" type="curve" smooth="yes"/>
      <point x="1007" y="130"/>
      <point x="1007" y="40"/>
    </contour>
  </outline>
</glyph>
<glyph name="Oslash" format="2">
  <advance width="732"/>
  <unicode hex="00D8"/>
  <outline>
    <contour>
      <point x="600" y="550" type="curve" smooth="yes"/>
      <point x="509" y="429"/>
      <point x="499" y="176"/>
      <point x="410" y="59" type="curve" smooth="yes"/>
      <point x="400" y="45"/>
      <point x="391" y="31"/>
      <point x="371" y="-1" type="curve" smooth="yes"/>
      <point x="273" y="-161"/>
      <point x="78" y="91"/>
      <point x="166" y="149" type="curve" smooth="yes"/>
      <point x="348" y="270"/>
      <point x="201" y="95"/>
      <point x="200" y="98" type="curve" smooth="yes"/>
      <point x="192" y="118"/>
      <point x="165" y="164"/>
      <point x="165" y="232" type="curve" smooth="yes"/>
      <point x="165" y="379"/>
      <point x="293" y="492"/>
      <point x="484" y="492" type="curve" smooth="yes"/>
      <point x="676" y="492"/>
      <point x="807" y="382"/>
      <point x="807" y="232" type="curve" smooth="yes"/>
      <point x="807" y="150"/>
      <point x="768" y="80"/>
      <point x="701" y="32" type="curve" smooth="yes"/>
      <point x="645" y="-7"/>
      <point x="560" y="-21"/>
      <point x="449" y="-8" type="curve" smooth="yes"/>
      <point x="382" y="0"/>
      <point x="392" y="89"/>
      <point x="459" y="82" type="curve" smooth="yes"/>
      <point x="538" y="73"/>
      <point x="609" y="78"/>
      <point x="649" y="106" type="curve" smooth="yes"/>
      <point x="692" y="136"/>
      <point x="717" y="180"/>
      <point x="717" y="232" type="curve" smooth="yes"/>
      <point x="717" y="336"/>
      <point x="618" y="402"/>
      <point x="484" y="402" type="curve" smooth="yes"/>
      <point x="351" y="402"/>
      <point x="255" y="334"/>
      <point x="255" y="232" type="curve" smooth="yes"/>
      <point x="255" y="184"/>
      <point x="276" y="148"/>
      <point x="282" y="136" type="curve" smooth="yes"/>
      <point x="325" y="42"/>
      <point x="222" y="77"/>
      <point x="216" y="73" type="curve" smooth="yes"/>
      <point x="212" y="71"/>
      <point x="291" y="41"/>
      <point x="295" y="47" type="curve" smooth="yes"/>
      <point x="317" y="83"/>
      <point x="326" y="97"/>
      <point x="338" y="113" type="curve" smooth="yes"/>
      <point x="415" y="214"/>
      <point x="421" y="463"/>
      <point x="528" y="604" type="curve" smooth="yes"/>
      <point x="569" y="658"/>
      <point x="641" y="604"/>
    </contour>
  </outline>
</glyph>
<glyph name="Thorn" format="2">
  <advance width="555"/>
  <unicode hex="00DE"/>
  <outline>
    <contour>
      <point x="203" y="196" type="curve" smooth="yes"/>
      <point x="305" y="163"/>
      <point x="373" y="155"/>
      <point x="426" y="156" type="curve" smooth="yes"/>
      <point x="489" y="157"/>
      <point x="550" y="182"/>
      <point x="550" y="230" type="curve" smooth="yes"/>
      <point x="550" y="279"/>
      <point x="481" y="309"/>
      <point x="390" y="319" type="curve" smooth="yes"/>
      <point x="361" y="322"/>
      <point x="327" y="326"/>
      <point x="294" y="332" type="curve" smooth="yes"/>
      <point x="162" y="355"/>
      <point x="95" y="415"/>
      <point x="81" y="466" type="curve" smooth="yes"/>
      <point x="45" y="608"/>
      <point x="290" y="558"/>
      <point x="290" y="361" type="curve" smooth="yes"/>
      <point x="290" y="223"/>
      <point x="290" y="111"/>
      <point x="290" y="19" type="curve" smooth="yes"/>
      <point x="290" y="-49"/>
      <point x="200" y="-48"/>
      <point x="200" y="19" type="curve" smooth="yes"/>
      <point x="200" y="157"/>
      <point x="200" y="269"/>
      <point x="200" y="361" type="curve" smooth="yes"/>
      <point x="200" y="369"/>
      <point x="167" y="494"/>
      <point x="169" y="488" type="curve" smooth="yes"/>
      <point x="175" y="464"/>
      <point x="246" y="432"/>
      <point x="308" y="420" type="curve" smooth="yes"/>
      <point x="339" y="416"/>
      <point x="371" y="412"/>
      <point x="400" y="409" type="curve" smooth="yes"/>
      <point x="564" y="391"/>
      <point x="640" y="319"/>
      <point x="640" y="230" type="curve" smooth="yes"/>
      <point x="640" y="135"/>
      <point x="553" y="69"/>
      <point x="428" y="66" type="curve" smooth="yes"/>
      <point x="368" y="65"/>
      <point x="291" y="73"/>
      <point x="175" y="110" type="curve" smooth="yes"/>
      <point x="111" y="131"/>
      <point x="138" y="216"/>
    </contour>
  </outline>
</glyph>
<glyph name="ae" format="2">
  <advance width="938"/>
  <unicode hex="00E6"/>
  <outline>
    <contour>
      <point x="519" y="400" type="curve" smooth="yes"/>
      <point x="519" y="361"/>
      <point x="519" y="319"/>
      <point x="519" y="248" type="curve" smooth="yes"/>
      <point x="519" y="132"/>
      <point x="511" y="6"/>
      <point x="401" y="-22" type="curve" smooth="yes"/>
      <point x="291" y="-50"/>
      <point x="159" y="49"/>
      <point x="159" y="167" type="curve" smooth="yes"/>
      <point x="159" y="277"/>
      <point x="257" y="363"/>
      <point x="399" y="363" type="curve" smooth="yes"/>
      <point x="540" y="363"/>
      <point x="639" y="282"/>
      <point x="639" y="170" type="curve" smooth="yes"/>
      <point x="639" y="97"/>
      <point x="712" y="60"/>
      <point x="799" y="60" type="curve" smooth="yes"/>
      <point x="845" y="60"/>
      <point x="895" y="70"/>
      <point x="945" y="89" type="curve" smooth="yes"/>
      <point x="1008" y="113"/>
      <point x="1040" y="29"/>
      <point x="977" y="5" type="curve" smooth="yes"/>
      <point x="915" y="-18"/>
      <point x="855" y="-30"/>
      <point x="799" y="-30" type="curve" smooth="yes"/>
      <point x="655" y="-30"/>
      <point x="549" y="49"/>
      <point x="549" y="170" type="curve" smooth="yes"/>
      <point x="549" y="235"/>
      <point x="481" y="273"/>
      <point x="399" y="273" type="curve" smooth="yes"/>
      <point x="316" y="273"/>
      <point x="249" y="232"/>
      <point x="249" y="167" type="curve" smooth="yes"/>
      <point x="249" y="109"/>
      <point x="325" y="52"/>
      <point x="379" y="66" type="curve" smooth="yes"/>
      <point x="431" y="79"/>
      <point x="429" y="193"/>
      <point x="429" y="248" type="curve" smooth="yes"/>
      <point x="429" y="354"/>
      <point x="429" y="374"/>
      <point x="429" y="400" type="curve" smooth="yes"/>
      <point x="429" y="468"/>
      <point x="519" y="468"/>
    </contour>
    <contour>
      <point x="656" y="232" type="curve" smooth="yes"/>
      <point x="763" y="212"/>
      <point x="801" y="212"/>
      <point x="880" y="212" type="curve" smooth="yes"/>
      <point x="886" y="212"/>
      <point x="920" y="213"/>
      <point x="918" y="216" type="curve" smooth="yes"/>
      <point x="898" y="254"/>
      <point x="850" y="270"/>
      <point x="776" y="280" type="curve" smooth="yes"/>
      <point x="690" y="293"/>
      <point x="519" y="302"/>
      <point x="519" y="244" type="curve" smooth="yes"/>
      <point x="519" y="138"/>
      <point x="519" y="129"/>
      <point x="519" y="104" type="curve" smooth="yes"/>
      <point x="519" y="36"/>
      <point x="429" y="37"/>
      <point x="429" y="104" type="curve" smooth="yes"/>
      <point x="429" y="141"/>
      <point x="429" y="173"/>
      <point x="429" y="244" type="curve" smooth="yes"/>
      <point x="429" y="375"/>
      <point x="597" y="398"/>
      <point x="788" y="370" type="curve" smooth="yes"/>
      <point x="908" y="353"/>
      <point x="966" y="319"/>
      <point x="998" y="258" type="curve" smooth="yes"/>
      <point x="1033" y="193"/>
      <point x="1001" y="122"/>
      <point x="880" y="122" type="curve" smooth="yes"/>
      <point x="797" y="122"/>
      <point x="753" y="122"/>
      <point x="640" y="144" type="curve" smooth="yes"/>
      <point x="573" y="156"/>
      <point x="590" y="245"/>
    </contour>
  </outline>
</glyph>
<glyph name="oslash" format="2">
  <advance width="600"/>
  <unicode hex="00F8"/>
  <outline>
    <contour>
      <point x="288" y="142" type="curve" smooth="yes"/>
      <point x="376" y="142"/>
      <point x="448" y="185"/>
      <point x="448" y="249" type="curve" smooth="yes"/>
      <point x="448" y="314"/>
      <point x="376" y="356"/>
      <point x="288" y="356" type="curve" smooth="yes"/>
      <point x="201" y="356"/>
      <point x="129" y="314"/>
      <point x="129" y="249" type="curve" smooth="yes"/>
      <point x="129" y="185"/>
      <point x="201" y="142"/>
    </contour>
    <contour>
      <point x="288" y="52" type="curve" smooth="yes"/>
      <point x="140" y="52"/>
      <point x="39" y="140"/>
      <point x="39" y="249" type="curve" smooth="yes"/>
      <point x="39" y="359"/>
      <point x="140" y="446"/>
      <point x="288" y="446" type="curve" smooth="yes"/>
      <point x="437" y="446"/>
      <point x="538" y="359"/>
      <point x="538" y="249" type="curve" smooth="yes"/>
      <point x="538" y="140"/>
      <point x="437" y="52"/>
    </contour>
    <contour>
      <point x="98" y="81" type="curve" smooth="yes"/>
      <point x="409" y="473" type="line" smooth="yes"/>
      <point x="451" y="526"/>
      <point x="521" y="470"/>
      <point x="479" y="417" type="curve" smooth="yes"/>
      <point x="168" y="25" type="line" smooth="yes"/>
      <point x="126" y="-28"/>
      <point x="56" y="28"/>
    </contour>
  </outline>
</glyph>
<glyph name="thorn" format="2">
  <advance width="584"/>
  <unicode hex="00FE"/>
  <outline>
    <contour>
      <point x="187" y="-33" type="curve" smooth="yes"/>
      <point x="189" y="-33"/>
      <point x="186" y="-5"/>
      <point x="186" y="-3" type="curve" smooth="yes"/>
      <point x="186" y="66"/>
      <point x="186" y="121"/>
      <point x="186" y="168" type="curve" smooth="yes"/>
      <point x="186" y="278"/>
      <point x="282" y="363"/>
      <point x="425" y="363" type="curve" smooth="yes"/>
      <point x="567" y="363"/>
      <point x="666" y="278"/>
      <point x="666" y="166" type="curve" smooth="yes"/>
      <point x="666" y="53"/>
      <point x="536" y="-14"/>
      <point x="348" y="20" type="curve" smooth="yes"/>
      <point x="141" y="57"/>
      <point x="36" y="177"/>
      <point x="81" y="264" type="curve" smooth="yes"/>
      <point x="99" y="297"/>
      <point x="201" y="373"/>
      <point x="177" y="479" type="curve" smooth="yes"/>
      <point x="162" y="545"/>
      <point x="250" y="565"/>
      <point x="265" y="499" type="curve" smooth="yes"/>
      <point x="301" y="339"/>
      <point x="187" y="271"/>
      <point x="161" y="222" type="curve" smooth="yes"/>
      <point x="143" y="189"/>
      <point x="284" y="123"/>
      <point x="364" y="108" type="curve" smooth="yes"/>
      <point x="463" y="91"/>
      <point x="576" y="107"/>
      <point x="576" y="166" type="curve" smooth="yes"/>
      <point x="576" y="232"/>
      <point x="509" y="273"/>
      <point x="425" y="273" type="curve" smooth="yes"/>
      <point x="341" y="273"/>
      <point x="276" y="233"/>
      <point x="276" y="168" type="curve" smooth="yes"/>
      <point x="276" y="99"/>
      <point x="276" y="44"/>
      <point x="276" y="-3" type="curve" smooth="yes"/>
      <point x="276" y="-58"/>
      <point x="267" y="-102"/>
      <point x="215" y="-119" type="curve" smooth="yes"/>
      <point x="151" y="-140"/>
      <point x="123" y="-55"/>
    </contour>
  </outline>
</glyph>
<glyph name="dotlessi" format="2">
  <advance width="231"/>
  <unicode hex="0131"/>
  <outline>
    <contour>
      <point x="180" y="61" type="curve" smooth="yes"/>
      <point x="188" y="72"/>
      <point x="190" y="91"/>
      <point x="190" y="108" type="curve" smooth="yes"/>
      <point x="190" y="156"/>
      <point x="190" y="194"/>
      <point x="190" y="226" type="curve" smooth="yes"/>
      <point x="190" y="251"/>
      <point x="187" y="278"/>
      <point x="173" y="313" type="curve" smooth="yes"/>
      <point x="149" y="376"/>
      <point x="232" y="408"/>
      <point x="257" y="345" type="curve" smooth="yes"/>
      <point x="275" y="298"/>
      <point x="280" y="261"/>
      <point x="280" y="226" type="curve" smooth="yes"/>
      <point x="280" y="178"/>
      <point x="280" y="140"/>
      <point x="280" y="108" type="curve" smooth="yes"/>
      <point x="280" y="66"/>
      <point x="271" y="32"/>
      <point x="250" y="5" type="curve" smooth="yes"/>
      <point x="208" y="-48"/>
      <point x="138" y="8"/>
    </contour>
  </outline>
</glyph>
<glyph name="ring" format="2">
  <advance width="420"/>
  <unicode hex="02DA"/>
  <outline>
    <contour>
      <point x="257" y="367" type="curve" smooth="yes"/>
      <point x="219" y="385"/>
      <point x="197" y="419"/>
      <point x="197" y="458" type="curve" smooth="yes"/>
      <point x="197" y="512"/>
      <point x="243" y="558"/>
      <point x="329" y="558" type="curve" smooth="yes"/>
      <point x="443" y="558"/>
      <point x="470" y="488"/>
      <point x="434" y="444" type="curve" smooth="yes"/>
      <point x="417" y="422"/>
      <point x="385" y="406"/>
      <point x="333" y="401" type="curve" smooth="yes"/>
      <point x="266" y="395"/>
      <point x="258" y="485"/>
      <point x="325" y="491" type="curve" smooth="yes"/>
      <point x="333" y="492"/>
      <point x="361" y="496"/>
      <point x="364" y="500" type="curve" smooth="yes"/>
      <point x="365" y="502"/>
      <point x="333" y="468"/>
      <point x="329" y="468" type="curve" smooth="yes"/>
      <point x="320" y="468"/>
      <point x="287" y="464"/>
      <point x="287" y="458" type="curve" smooth="yes"/>
      <point x="287" y="453"/>
      <point x="290" y="451"/>
      <point x="295" y="449" type="curve" smooth="yes"/>
      <point x="356" y="421"/>
      <point x="319" y="339"/>
    </contour>
  </outline>
</glyph>
<glyph name="tilde" format="2">
  <advance width="565"/>
  <unicode hex="02DC"/>
  <outline>
    <contour>
      <point x="563" y="533" type="curve" smooth="yes"/>
      <point x="609" y="435"/>
      <point x="553" y="372"/>
      <point x="474" y="372" type="curve" smooth="yes"/>
      <point x="376" y="372"/>
      <point x="376" y="448"/>
      <point x="327" y="448" type="curve" smooth="yes"/>
      <point x="296" y="448"/>
      <point x="265" y="414"/>
      <point x="247" y="401" type="curve" smooth="yes"/>
      <point x="192" y="362"/>
      <point x="140" y="436"/>
      <point x="195" y="475" type="curve" smooth="yes"/>
      <point x="235" y="503"/>
      <point x="260" y="538"/>
      <point x="327" y="538" type="curve" smooth="yes"/>
      <point x="423" y="538"/>
      <point x="425" y="462"/>
      <point x="474" y="462" type="curve" smooth="yes"/>
      <point x="494" y="462"/>
      <point x="493" y="470"/>
      <point x="481" y="495" type="curve" smooth="yes"/>
      <point x="452" y="556"/>
      <point x="534" y="594"/>
    </contour>
  </outline>
</glyph>
<glyph name="emdash" format="2">
  <advance width="805"/>
  <unicode hex="2014"/>
  <outline>
    <contour>
      <point x="700" y="246" type="curve" smooth="yes"/>
      <point x="105" y="246" type="line" smooth="yes"/>
      <point x="37" y="246"/>
      <point x="38" y="336"/>
      <point x="105" y="336" type="curve" smooth="yes"/>
      <point x="700" y="336" type="line" smooth="yes"/>
      <point x="768" y="336"/>
      <point x="768" y="246"/>
    </contour>
  </outline>
</glyph>
<glyph name="quotesinglbase" format="2">
  <advance width="274"/>
  <unicode hex="201A"/>
  <outline>
    <contour>
      <point x="200" y="-61" type="curve" smooth="yes"/>
      <point x="215" y="-44"/>
      <point x="241" y="0"/>
      <point x="225" y="10" type="curve" smooth="yes"/>
      <point x="168" y="46"/>
      <point x="216" y="122"/>
      <point x="273" y="86" type="curve" smooth="yes"/>
      <point x="338" y="45"/>
      <point x="332" y="-42"/>
      <point x="270" y="-119" type="curve" smooth="yes"/>
      <point x="227" y="-171"/>
      <point x="157" y="-114"/>
    </contour>
  </outline>
</glyph>
<glyph name="guilsinglright" format="2">
  <advance width="397"/>
  <unicode hex="203A"/>
  <outline>
    <contour>
      <point x="185" y="101" type="curve" smooth="yes"/>
      <point x="240" y="107"/>
      <point x="311" y="115"/>
      <point x="334" y="156" type="curve" smooth="yes"/>
      <point x="352" y="188"/>
      <point x="334" y="191"/>
      <point x="298" y="213" type="curve" smooth="yes"/>
      <point x="240" y="251"/>
      <point x="244" y="245"/>
      <point x="196" y="275" type="curve" smooth="yes"/>
      <point x="139" y="310"/>
      <point x="186" y="387"/>
      <point x="244" y="351" type="curve" smooth="yes"/>
      <point x="290" y="323"/>
      <point x="286" y="327"/>
      <point x="346" y="289" type="curve" smooth="yes"/>
      <point x="434" y="233"/>
      <point x="457" y="192"/>
      <point x="412" y="112" type="curve" smooth="yes"/>
      <point x="372" y="40"/>
      <point x="292" y="23"/>
      <point x="195" y="11" type="curve" smooth="yes"/>
      <point x="128" y="3"/>
      <point x="118" y="93"/>
    </contour>
  </outline>
</glyph>
<glyph name="fraction" format="2">
  <advance width="568"/>
  <unicode hex="2044"/>
  <outline>
    <contour>
      <point x="607" y="465" type="curve" smooth="yes"/>
      <point x="607" y="397"/>
      <point x="573" y="355"/>
      <point x="536" y="312" type="curve" smooth="yes"/>
      <point x="475" y="243"/>
      <point x="412" y="172"/>
      <point x="351" y="102" type="curve" smooth="yes"/>
      <point x="311" y="58"/>
      <point x="264" y="11"/>
      <point x="154" y="17" type="curve" smooth="yes"/>
      <point x="86" y="21"/>
      <point x="91" y="111"/>
      <point x="158" y="107" type="curve" smooth="yes"/>
      <point x="233" y="103"/>
      <point x="257" y="132"/>
      <point x="283" y="162" type="curve" smooth="yes"/>
      <point x="344" y="232"/>
      <point x="407" y="303"/>
      <point x="468" y="372" type="curve" smooth="yes"/>
      <point x="490" y="397"/>
      <point x="517" y="424"/>
      <point x="517" y="465" type="curve" smooth="yes"/>
      <point x="517" y="533"/>
      <point x="607" y="533"/>
    </contour>
  </outline>
</glyph>
<glyph name="four.superior" format="2">
  <advance width="434"/>
  <unicode hex="2074"/>
  <outline>
    <contour>
      <point x="379" y="302" type="curve" smooth="yes"/>
      <point x="316" y="302"/>
      <point x="234" y="316"/>
      <point x="176" y="316" type="curve" smooth="yes"/>
      <point x="63" y="316"/>
      <point x="72" y="345"/>
      <point x="128" y="418" type="curve" smooth="yes"/>
      <point x="139" y="431"/>
      <point x="139" y="452"/>
      <point x="143" y="471" type="curve" smooth="yes"/>
      <point x="151" y="525"/>
      <point x="199" y="550"/>
      <point x="274" y="534" type="curve" smooth="yes"/>
      <point x="340" y="519"/>
      <point x="446" y="472"/>
      <point x="446" y="408" type="curve" smooth="yes"/>
      <point x="446" y="378"/>
      <point x="446" y="366"/>
      <point x="446" y="355" type="curve" smooth="yes"/>
      <point x="446" y="303"/>
      <point x="446" y="250"/>
      <point x="446" y="211" type="curve" smooth="yes"/>
      <point x="446" y="144"/>
      <point x="356" y="144"/>
      <point x="356" y="211" type="curve" smooth="yes"/>
      <point x="356" y="269"/>
      <point x="356" y="320"/>
      <point x="356" y="355" type="curve" smooth="yes"/>
      <point x="356" y="372"/>
      <point x="356" y="388"/>
      <point x="356" y="408" type="curve" smooth="yes"/>
      <point x="356" y="411"/>
      <point x="258" y="445"/>
      <point x="256" y="446" type="curve" smooth="yes"/>
      <point x="253" y="447"/>
      <point x="232" y="458"/>
      <point x="231" y="455" type="curve" smooth="yes"/>
      <point x="223" y="411"/>
      <point x="225" y="394"/>
      <point x="200" y="362" type="curve" smooth="yes"/>
      <point x="197" y="359"/>
      <point x="171" y="406"/>
      <point x="176" y="406" type="curve" smooth="yes"/>
      <point x="240" y="406"/>
      <point x="322" y="392"/>
      <point x="379" y="392" type="curve" smooth="yes"/>
      <point x="447" y="392"/>
      <point x="447" y="302"/>
    </contour>
  </outline>
</glyph>
<glyph name="Euro" format="2">
  <advance width="606"/>
  <unicode hex="20AC"/>
  <outline>
    <contour>
      <point x="648" y="45" type="curve" smooth="yes"/>
      <point x="615" y="12"/>
      <point x="571" y="-6"/>
      <point x="518" y="-6" type="curve" smooth="yes"/>
      <point x="341" y="-6"/>
      <point x="223" y="89"/>
      <point x="223" y="231" type="curve" smooth="yes"/>
      <point x="223" y="372"/>
      <point x="340" y="469"/>
      <point x="514" y="469" type="curve" smooth="yes"/>
      <point x="553" y="469"/>
      <point x="586" y="470"/>
      <point x="611" y="473" type="curve" smooth="yes"/>
      <point x="678" y="480"/>
      <point x="688" y="391"/>
      <point x="621" y="383" type="curve" smooth="yes"/>
      <point x="592" y="380"/>
      <point x="557" y="379"/>
      <point x="514" y="379" type="curve" smooth="yes"/>
      <point x="397" y="379"/>
      <point x="313" y="326"/>
      <point x="313" y="231" type="curve" smooth="yes"/>
      <point x="313" y="136"/>
      <point x="399" y="84"/>
      <point x="518" y="84" type="curve" smooth="yes"/>
      <point x="545" y="84"/>
      <point x="567" y="92"/>
      <point x="584" y="109" type="curve" smooth="yes"/>
      <point x="632" y="157"/>
      <point x="696" y="93"/>
    </contour>
    <contour>
      <point x="110" y="389" type="curve" smooth="yes"/>
      <point x="145" y="389"/>
      <point x="191" y="399"/>
      <point x="249" y="388" type="curve" smooth="yes"/>
      <point x="333" y="373"/>
      <point x="366" y="347"/>
      <point x="440" y="332" type="curve" smooth="yes"/>
      <point x="502" y="320"/>
      <point x="523" y="333"/>
      <point x="576" y="333" type="curve" smooth="yes"/>
      <point x="644" y="333"/>
      <point x="644" y="243"/>
      <point x="576" y="243" type="curve" smooth="yes"/>
      <point x="533" y="243"/>
      <point x="498" y="228"/>
      <point x="422" y="244" type="curve" smooth="yes"/>
      <point x="338" y="261"/>
      <point x="308" y="287"/>
      <point x="233" y="300" type="curve" smooth="yes"/>
      <point x="187" y="309"/>
      <point x="155" y="299"/>
      <point x="110" y="299" type="curve" smooth="yes"/>
      <point x="43" y="299"/>
      <point x="43" y="389"/>
    </contour>
    <contour>
      <point x="110" y="278" type="curve" smooth="yes"/>
      <point x="146" y="278"/>
      <point x="192" y="287"/>
      <point x="249" y="277" type="curve" smooth="yes"/>
      <point x="333" y="261"/>
      <point x="365" y="237"/>
      <point x="441" y="220" type="curve" smooth="yes"/>
      <point x="450" y="218"/>
      <point x="502" y="211"/>
      <point x="504" y="214" type="curve" smooth="yes"/>
      <point x="539" y="271"/>
      <point x="616" y="224"/>
      <point x="580" y="166" type="curve" smooth="yes"/>
      <point x="561" y="134"/>
      <point x="519" y="111"/>
      <point x="421" y="132" type="curve" smooth="yes"/>
      <point x="337" y="151"/>
      <point x="308" y="175"/>
      <point x="233" y="189" type="curve" smooth="yes"/>
      <point x="188" y="197"/>
      <point x="155" y="188"/>
      <point x="110" y="188" type="curve" smooth="yes"/>
      <point x="43" y="188"/>
      <point x="43" y="278"/>
    </contour>
  </outline>
</glyph>
<glyph name="divisionslash" format="2">
  <advance width="518"/>
  <unicode hex="2215"/>
  <outline>
    <contour>
      <point x="582" y="504" type="curve" smooth="yes"/>
      <point x="587" y="450"/>
      <point x="572" y="410"/>
      <point x="547" y="376" type="curve" smooth="yes"/>
      <point x="474" y="277"/>
      <point x="399" y="176"/>
      <point x="325" y="76" type="curve" smooth="yes"/>
      <point x="287" y="24"/>
      <point x="249" y="-23"/>
      <point x="177" y="-51" type="curve" smooth="yes"/>
      <point x="114" y="-75"/>
      <point x="82" y="9"/>
      <point x="145" y="33" type="curve" smooth="yes"/>
      <point x="197" y="53"/>
      <point x="225" y="92"/>
      <point x="253" y="130" type="curve" smooth="yes"/>
      <point x="327" y="230"/>
      <point x="402" y="331"/>
      <point x="475" y="430" type="curve" smooth="yes"/>
      <point x="488" y="448"/>
      <point x="495" y="466"/>
      <point x="492" y="496" type="curve" smooth="yes"/>
      <point x="486" y="563"/>
      <point x="575" y="571"/>
    </contour>
  </outline>
</glyph>
<glyph name="a" format="2">
  <advance width="623"/>
  <outline>
    <contour>
      <point x="555.9771558423832" y="454.3850263504848" type="curve" smooth="yes"/>
      <point x="555.9872465772877" y="438.1966436468213"/>
      <point x="555.9848178386438" y="377.16915619228064"/>
      <point x="555.9981454930517" y="263.4408882715851" type="curve" smooth="yes"/>
      <point x="556.0174136763949" y="99.02057464617545"/>
      <point x="422.1132372382901" y="104.53556279918851"/>
      <point x="283.280629832986" y="157.29975199986694" type="curve" smooth="yes"/>
      <point x="127.60229158733536" y="216.46626516388395"/>
      <point x="50.036734725220875" y="251.6716551475109"/>
      <point x="50.016171140148934" y="369.4923193744438" type="curve" smooth="yes"/>
      <point x="49.99544806548589" y="488.22679165065745"/>
      <point x="155.0811553281484" y="594.8635277547903"/>
      <point x="302.99049729655957" y="594.8635277547903" type="curve" smooth="yes"/>
      <point x="451.7917920580822" y="594.8635277547903"/>
      <point x="555.994189115942" y="481.024423181525"/>
      <point x="556.0161632241218" y="369.51089868541743" type="curve" smooth="yes"/>
      <point x="556.0310962441417" y="293.8504888837671" type="line" smooth="yes"/>
      <point x="556.038872542009" y="254.95335038530524"/>
      <point x="556.039983023439" y="217.47928569630085"/>
      <point x="556.039736156036" y="177.87479665303587" type="curve" smooth="yes"/>
      <point x="556.0392686571316" y="102.87479665449291"/>
      <point x="456.0392686590743" y="102.87541998636544"/>
      <point x="456.0397361579787" y="177.8754199849084" type="curve" smooth="yes"/>
      <point x="456.04000497854304" y="221.00181478964046"/>
      <point x="456.03956606497565" y="251.474343845401"/>
      <point x="456.03109819186795" y="293.8307519833648" type="curve" smooth="yes"/>
      <point x="456.01616516562194" y="369.49119335563563" type="line" smooth="yes"/>
      <point x="456.0036270425155" y="433.1192726704916"/>
      <point x="387.8944641294787" y="494.8635277547903"/>
      <point x="302.99049729655957" y="494.8635277547903" type="curve" smooth="yes"/>
      <point x="217.14954870778888" y="494.8635277547903"/>
      <point x="150.00414273381654" y="438.4187380824248"/>
      <point x="150.01616961706188" y="369.50977266660925" type="curve" smooth="yes"/>
      <point x="150.02755864098117" y="304.255471999713"/>
      <point x="232.58543722505047" y="283.5454011882108"/>
      <point x="318.8069940110311" y="250.77636644588182" type="curve" smooth="yes"/>
      <point x="379.029736116024" y="227.888341665544"/>
      <point x="456.006504323074" y="192.10700433035495"/>
      <point x="455.99814617970986" y="263.4291694135037" type="curve" smooth="yes"/>
      <point x="455.98913980624747" y="340.28284694678973"/>
      <point x="455.99210792312624" y="430.36650823579174"/>
      <point x="455.97717526950873" y="454.3226931753397" type="curve" smooth="yes"/>
      <point x="455.93042538815007" y="529.3226786049955"/>
      <point x="555.9304059610246" y="529.3850117801406"/>
    </contour>
  </outline>
</glyph>
<glyph name="dieresis.cap" format="2">
  <advance width="577"/>
  <outline>
    <contour>
      <point x="185" y="607" type="curve" smooth="yes"/>
      <point x="97" y="618"/>
      <point x="98" y="720"/>
      <point x="186" y="728" type="curve" smooth="yes"/>
      <point x="253" y="734"/>
      <point x="261" y="644"/>
      <point x="194" y="638" type="curve" smooth="yes"/>
      <point x="191" y="638"/>
      <point x="193" y="697"/>
      <point x="195" y="697" type="curve" smooth="yes"/>
      <point x="262" y="689"/>
      <point x="252" y="599"/>
    </contour>
    <contour>
      <point x="405" y="607" type="curve" smooth="yes"/>
      <point x="317" y="618"/>
      <point x="318" y="720"/>
      <point x="406" y="728" type="curve" smooth="yes"/>
      <point x="473" y="734"/>
      <point x="481" y="644"/>
      <point x="414" y="638" type="curve" smooth="yes"/>
      <point x="411" y="638"/>
      <point x="413" y="697"/>
      <point x="415" y="697" type="curve" smooth="yes"/>
      <point x="482" y="689"/>
      <point x="472" y="599"/>
    </contour>
  </outline>
</glyph>
<glyph name="i" format="2">
  <advance width="257"/>
  <outline>
    <contour>
      <point x="77.03899866321174" y="176.4612741759997" type="curve" smooth="yes"/>
      <point x="77.03926909824625" y="212.09928241442825"/>
      <point x="77.03820847269978" y="243.209378087448"/>
      <point x="77.03171803187067" y="280.3968649449388" type="curve" smooth="yes"/>
      <point x="77.00037102463281" y="460.0019873663218" type="line" smooth="yes"/>
      <point x="76.99983117027678" y="463.09512499740754"/>
      <point x="176.98467522465333" y="509.95034287175366"/>
      <point x="176.98431221913813" y="509.4703732393437" type="curve" smooth="yes"/>
      <point x="176.92758903495923" y="434.4703946894776"/>
      <point x="76.92761763513775" y="434.54602560171605"/>
      <point x="76.98434081931664" y="509.54600415158217" type="curve" smooth="yes"/>
      <point x="77.00594318093384" y="538.1088692545512"/>
      <point x="176.96824291247387" y="644.0912379887334"/>
      <point x="177.00036950154575" y="460.0194406584874" type="curve" smooth="yes"/>
      <point x="177.0317165087836" y="280.41431823710434" type="line" smooth="yes"/>
      <point x="177.03764132645958" y="246.46761334287729"/>
      <point x="177.03924552773572" y="208.99277419416595"/>
      <point x="177.03899866033254" y="176.46051533719836" type="curve" smooth="yes"/>
      <point x="177.03842953123154" y="101.46051533935776"/>
      <point x="77.03842953411075" y="101.4612741781591"/>
    </contour>
    <contour>
      <point x="79.73461582433461" y="631.9854961559876" type="curve" smooth="yes"/>
      <point x="85.85007690560823" y="649.5851489007903"/>
      <point x="58.15792428473198" y="687.0105300105835"/>
      <point x="86.67147902487065" y="725.7989510077095" type="curve" smooth="yes"/>
      <point x="131.09333714336768" y="786.2282363030042"/>
      <point x="211.6657175370939" y="726.999092145008"/>
      <point x="167.24385941859688" y="666.5698068497134" type="curve" smooth="yes"/>
      <point x="161.8773331461676" y="659.2694515539882"/>
      <point x="206.6069442410341" y="692.4423862747756"/>
      <point x="174.19454492153702" y="599.1629155909026" type="curve" smooth="yes"/>
      <point x="149.57760949772324" y="528.3179687680008"/>
      <point x="55.117680400520825" y="561.1405493330858"/>
    </contour>
  </outline>
</glyph>
<glyph name="period" format="2">
  <advance width="257"/>
  <outline>
    <contour>
      <point x="78.17211233734979" y="214.63453594965029" type="curve" smooth="yes"/>
      <point x="78.0214679011151" y="215.32782541868676"/>
      <point x="158.88397139041462" y="254.8170793945645"/>
      <point x="160.46816266156364" y="253.53716037480493" type="curve" smooth="yes"/>
      <point x="218.80691181276214" y="206.40341081598524"/>
      <point x="155.96191240100248" y="128.61841194772063"/>
      <point x="97.62316324980398" y="175.75216150654032" type="curve" smooth="yes"/>
      <point x="-27.266444412052586" y="276.6544875879058"/>
      <point x="164.01577230059291" y="290.5234159946975"/>
      <point x="175.89181585696178" y="235.86798936729133" type="curve" smooth="yes"/>
      <point x="191.81690592019265" y="162.57821172758236"/>
      <point x="94.09720240058066" y="141.3447583099413"/>
    </contour>
  </outline>
</glyph>
